<?xml version="1.0" standalone="no"?>
<!DOCTYPE svg PUBLIC "-//W3C//DTD SVG 1.1//EN" "http://www.w3.org/Graphics/SVG/1.1/DTD/svg11.dtd" >
<svg xmlns="http://www.w3.org/2000/svg">
<metadata>
This is a custom SVG webfont generated by Font Squirrel.
Copyright   : Copyright c Ray Larabie 2000 All rights reserved Freeware revised 2003 wwwlarabiefontscom
Designer    : Ray Larabie
Foundry     : Ray Larabie
Foundry URL : httpwwwtypodermiccom
</metadata>
<defs>
<font id="BlueHighwayRegular" horiz-adv-x="829" >
<font-face units-per-em="2048" ascent="1638" descent="-410" />
<missing-glyph horiz-adv-x="475" />
<glyph unicode=" "  horiz-adv-x="475" />
<glyph unicode="&#x09;" horiz-adv-x="475" />
<glyph unicode="&#xa0;" horiz-adv-x="475" />
<glyph unicode="!" horiz-adv-x="364" d="M90 115q0 47 25.5 80.5t66.5 33.5q35 0 63.5 -33.5t28.5 -80.5t-28.5 -81t-63.5 -34q-41 0 -66.5 34t-25.5 81zM96 666v469h168v-469l-41 -322h-76z" />
<glyph unicode="&#x22;" horiz-adv-x="634" d="M90 1192h137l-30 -492h-80zM399 1192h144l-31 -492h-80z" />
<glyph unicode="#" horiz-adv-x="1011" d="M57 285v129h209l62 313h-195v129h223l52 279h102l-53 -279h225l57 279h99l-56 -279h172v-129h-198l-66 -313h191v-129h-213l-62 -285h-96l57 285h-227l-59 -285h-99l58 285h-183zM365 412h227l67 317h-231z" />
<glyph unicode="$" horiz-adv-x="831" d="M66 809q0 170 264 223v103h168v-97q68 -8 123 -24.5t94 -42.5l-47 -160q-45 31 -170 59v-192q266 -61 266 -279q0 -250 -266 -295v-104h-168v100q-78 10 -142.5 27.5t-117.5 44.5l53 156q41 -23 92 -41.5t115 -28.5v279q-264 75 -264 272zM248 782q0 -51 82 -75v172 q-82 -34 -82 -97zM498 262q94 45 94 137q0 70 -94 103v-240z" />
<glyph unicode="%" horiz-adv-x="991" d="M72 932q0 86 48 143.5t118 57.5t117.5 -57.5t47.5 -143.5q0 -41 -13 -77t-35.5 -63.5t-53.5 -43t-63 -15.5q-70 0 -118 56.5t-48 142.5zM137 936q0 -47 32 -82t69 -35q41 0 68.5 35t27.5 82q0 49 -27.5 85t-68.5 36q-37 0 -69 -36t-32 -85zM238 2l403 1131h98l-399 -1131 h-102zM600 203q0 82 46 140t114 58q33 0 62.5 -15t51 -43t35 -63.5t13.5 -76.5q0 -86 -47.5 -143.5t-114.5 -57.5q-70 0 -115 57.5t-45 143.5zM666 201q0 -47 29.5 -82t68.5 -35q41 0 68.5 35t27.5 82q0 49 -27.5 85t-68.5 36q-39 0 -68.5 -36t-29.5 -85z" />
<glyph unicode="&#x26;" horiz-adv-x="1153" d="M82 315q0 61 13.5 102.5t37 73t58 60.5t77.5 65q-66 70 -102.5 140.5t-36.5 146.5q0 74 32 122t79 78t104 42t111 12q285 0 295 -239l-185 -66q-14 143 -125 143q-117 0 -116 -125q0 -70 178 -247q6 -8 62.5 -63.5t166.5 -162.5q47 90 55 238h187v-57q0 -92 -24.5 -173 t-69.5 -153l219 -250h-248l-100 113q-156 -137 -310 -138q-80 0 -145.5 24t-112.5 68t-73.5 106t-26.5 140zM279 356q0 -37 15 -71.5t40.5 -62t57.5 -44t63 -16.5q104 0 166 102l-244 246l-47 -39q-51 -52 -51 -115z" />
<glyph unicode="'" horiz-adv-x="325" d="M66 1067q0 49 28.5 82t69.5 33q37 0 63.5 -33t26.5 -82q0 -227 -148 -264v35q68 8 78 116q-61 0 -89.5 33t-28.5 80z" />
<glyph unicode="(" horiz-adv-x="477" d="M61 444q0 391 205 738h148q-113 -154 -169.5 -340.5t-56.5 -397.5q0 -379 228 -737h-150q-205 346 -205 737z" />
<glyph unicode=")" horiz-adv-x="475" d="M59 -293q61 94 104.5 181t71 175.5t40 181.5t12.5 199q0 219 -56.5 394.5t-171.5 343.5h148q104 -174 154.5 -356.5t50.5 -381.5t-50.5 -381t-154.5 -356h-148z" />
<glyph unicode="*" horiz-adv-x="942" d="M53 496l332 231l-330 234l62 110l293 -246v406h108v-406l305 244l64 -111l-334 -229l336 -233l-64 -109l-301 252v-414h-106v404l-301 -242z" />
<glyph unicode="+" horiz-adv-x="540" d="M53 528v168h150v183h137v-183h145v-168h-145v-180h-137v180h-150z" />
<glyph unicode="," horiz-adv-x="323" d="M68 115q0 47 25.5 80.5t66.5 33.5q35 0 63.5 -33.5t28.5 -80.5t-9.5 -91t-27.5 -79t-48 -57.5t-69 -26.5v24q41 10 60.5 36t23.5 81l-26 -2q-41 0 -64.5 34t-23.5 81z" />
<glyph unicode="-" horiz-adv-x="491" d="M96 528v168h295v-168h-295z" />
<glyph unicode="." horiz-adv-x="339" d="M78 115q0 47 24.5 80.5t65.5 33.5q35 0 63.5 -33.5t28.5 -80.5t-28.5 -81t-63.5 -34q-41 0 -65.5 34t-24.5 81z" />
<glyph unicode="/" horiz-adv-x="636" d="M39 -82l430 1331h129l-432 -1331h-127z" />
<glyph unicode="0" horiz-adv-x="987" d="M78 567q0 272 108.5 424t307.5 150q205 0 309 -148.5t104 -425.5q0 -272 -105.5 -424.5t-307.5 -150.5q-199 0 -306.5 148t-109.5 427zM246 567q0 -211 62.5 -308t185.5 -97t185 97t62 308q0 205 -56 306.5t-191 101.5q-129 0 -188.5 -101.5t-59.5 -306.5z" />
<glyph unicode="1" horiz-adv-x="419" d="M49 874v158q123 2 129 105h141v-1137h-167v874h-103z" />
<glyph unicode="2" horiz-adv-x="833" d="M84 0v90q0 100 18.5 174t52 130.5t82 100.5t107.5 87q39 29 81 47t76 40.5t55.5 56.5t21.5 95q0 141 -154 142q-70 0 -122 -24t-97 -95l-113 147q59 78 142 115t200 37q68 0 125 -17.5t99 -55.5t66 -97.5t24 -143.5v-4q0 -80 -24 -137t-63.5 -100t-91 -77t-106.5 -65 q-86 -47 -136.5 -116.5t-50.5 -161.5h472v-168h-664z" />
<glyph unicode="3" horiz-adv-x="792" d="M70 156l143 102q45 -94 170 -94q162 0 166 170q-4 195 -176 194h-68v168h68q121 0 121 152q-4 119 -117 129q-100 4 -121 -70l-139 58q63 180 258 178q270 2 272 -283q0 -164 -125 -225q195 -84 197 -299q-2 -338 -338 -342q-223 0 -311 162z" />
<glyph unicode="4" horiz-adv-x="862" d="M43 291v196l430 648h199v-676h123v-168h-123v-293h-168v293h-461zM209 459h295v450z" />
<glyph unicode="5" horiz-adv-x="860" d="M82 66l92 172q59 -45 114.5 -62.5t108.5 -17.5q98 0 161 55t63 160q0 45 -15.5 85t-42 69.5t-59.5 47t-70 17.5q-45 0 -88 -18.5t-82 -61.5l-166 70q6 63 11.5 121.5t11.5 122t11 138t11 171.5h572v-168h-426l-23 -265q41 35 85 48.5t89 13.5q160 0 251 -103.5t91 -289.5 q0 -96 -28.5 -168t-79.5 -120t-121 -72.5t-152 -24.5q-98 0 -175.5 17.5t-143.5 62.5z" />
<glyph unicode="6" horiz-adv-x="813" d="M72 436q0 139 34.5 265t98 222.5t149.5 155t189 62.5l26 -160q-117 -10 -209 -100t-120 -265q31 53 92 88t117 35q66 0 120 -26.5t93.5 -73.5t61 -114.5t21.5 -147.5q0 -193 -94 -290t-254 -97q-150 0 -237.5 117.5t-87.5 328.5zM238 367q0 -98 45 -153.5t125 -55.5 q82 0 134 54t52 153q0 98 -49 156.5t-129 58.5q-82 0 -130 -57.5t-48 -155.5z" />
<glyph unicode="7" horiz-adv-x="796" d="M68 967v168h677v-195q-74 -66 -136 -168t-106 -226t-69.5 -264.5t-27.5 -281.5h-181q8 145 33 284.5t64.5 264.5t96 231.5t128.5 186.5h-479z" />
<glyph unicode="8" horiz-adv-x="833" d="M74 344q0 55 13 106.5t36.5 92.5t55.5 69.5t69 38.5q-55 41 -76.5 97.5t-21.5 121.5q0 125 69.5 199t192.5 74q129 0 201.5 -66.5t72.5 -208.5q0 -66 -23.5 -124t-89.5 -99q45 -10 80 -38.5t57.5 -69.5t35 -91.5t12.5 -101.5q0 -166 -94.5 -258t-249.5 -92 q-154 0 -247 92t-93 258zM244 348q0 -88 49 -136t123 -48q78 0 126 46t48 138q0 193 -174 193q-76 0 -124 -47.5t-48 -145.5zM295 850q0 -59 33.5 -93t87.5 -34q53 0 84.5 36t31.5 91q0 61 -27.5 97t-88.5 36q-59 0 -90 -36t-31 -97z" />
<glyph unicode="9" horiz-adv-x="817" d="M66 752q0 193 93 292t259 99q154 0 239.5 -120t85.5 -331q0 -139 -35.5 -265t-98 -222t-149.5 -154.5t-192 -62.5l-20 159q55 4 108.5 30t97.5 72t74.5 111.5t42.5 151.5q-27 -53 -87 -88t-119 -35q-68 0 -122.5 26.5t-94 74t-61 115t-21.5 147.5zM223 764 q0 -98 47 -156.5t125 -58.5q82 0 130 57.5t48 155.5t-45 154.5t-125 56.5t-130 -55.5t-50 -153.5z" />
<glyph unicode=":" horiz-adv-x="358" d="M84 115q0 47 27.5 80.5t68.5 33.5q37 0 63.5 -33.5t26.5 -80.5t-26.5 -81t-63.5 -34q-41 0 -68.5 34t-27.5 81zM84 731q0 47 27.5 80t68.5 33q37 0 63.5 -33t26.5 -80q0 -49 -26.5 -82t-63.5 -33q-41 0 -68.5 33t-27.5 82z" />
<glyph unicode=";" horiz-adv-x="329" d="M63 115q0 47 26 80.5t69 33.5q37 0 65.5 -33.5t28.5 -80.5q0 -106 -39 -175t-117 -79v24q45 14 67.5 42t24.5 75l-34 -2q-41 0 -66 34t-25 81zM63 731q0 47 26 80t69 33q37 0 65.5 -33t28.5 -80q0 -49 -27.5 -82t-66.5 -33q-45 0 -70 33t-25 82z" />
<glyph unicode="&#x3c;" horiz-adv-x="911" d="M47 616l447 414q8 12 24 12q23 0 23 -26v-15l-39 -221h358v-327h-358l39 -220v-14q0 -27 -23 -26q-16 0 -24 12z" />
<glyph unicode="=" horiz-adv-x="591" d="M35 358v170h579v-170h-579zM35 614v168h579v-168h-579z" />
<glyph unicode="&#x3e;" horiz-adv-x="911" d="M51 453v327h355l-37 236q0 27 20 26q14 0 27 -12l448 -414l-448 -411q-12 -12 -27 -12q-20 0 -20 26l37 234h-355z" />
<glyph unicode="?" horiz-adv-x="716" d="M59 1020q51 70 128 97.5t182 27.5q131 0 212 -75t81 -216q0 -53 -14.5 -95t-38 -78t-54.5 -66.5t-63 -61.5q-31 -29 -46.5 -53.5t-22.5 -50t-9 -56.5t-4 -71h-170v14q0 104 33.5 187t97.5 141q33 31 55.5 53t34.5 41.5t17 42t5 53.5q0 57 -31.5 87t-86.5 30 q-68 0 -123.5 -19.5t-96.5 -70.5zM229 115q0 47 29 80.5t68 33.5q41 0 66.5 -33.5t25.5 -80.5t-25.5 -81t-66.5 -34q-39 0 -68 34t-29 81z" />
<glyph unicode="@" horiz-adv-x="987" d="M80 526q0 121 33.5 214.5t92 158t135.5 97t165 32.5q205 0 306 -124t101 -359q0 -35 -1 -89.5t-15 -106.5t-50 -90t-104 -38q-49 0 -84.5 19.5t-48.5 70.5q-29 -31 -68.5 -42t-82.5 -11q-53 0 -93 44t-40 124q0 170 159 170q27 0 61 -9t56 -32q4 78 -25.5 109.5 t-84.5 31.5q-23 0 -41.5 -5t-32.5 -29l-41 63q25 23 55.5 36t73.5 13q72 0 117 -42t45 -128v-227q0 -90 77 -90q49 0 73 29.5t32 70.5t6 84t-2 72q0 223 -87 323.5t-261 100.5q-78 0 -144.5 -30t-115.5 -86t-78 -138t-29 -187q4 -209 78 -333.5t229 -124.5v-62 q-98 0 -167.5 42t-113.5 113.5t-64.5 166t-20.5 198.5zM399 426q0 -41 25 -65.5t72 -24.5q10 0 27.5 5t32.5 14.5t26.5 20.5t11.5 23v82q0 6 -12.5 13.5t-28.5 13.5t-30.5 10t-20.5 4q-103 0 -103 -96z" />
<glyph unicode="A" horiz-adv-x="923" d="M10 0l334 1135h236l333 -1135h-180l-59 207h-424l-57 -207h-183zM303 399h315l-159 564z" />
<glyph unicode="B" horiz-adv-x="915" d="M96 0v1135h365q61 0 114.5 -19.5t94.5 -58.5t64.5 -95.5t23.5 -130.5t-28 -127t-75 -90q35 -6 69 -26.5t59.5 -54t42 -80.5t16.5 -109q0 -160 -97.5 -252t-277.5 -92h-371zM264 168h236q68 0 111.5 45t43.5 123t-43 120t-108 42h-4h-236v-330zM264 666h201q51 0 89 46 t38 107q0 63 -37 105.5t-90 42.5h-201v-301z" />
<glyph unicode="C" horiz-adv-x="987" d="M76 567q0 125 31.5 230.5t91 182.5t144.5 121t192 44q260 0 378 -205l-155 -98q-45 59 -99.5 86.5t-123.5 27.5q-129 0 -205 -105.5t-76 -283.5q0 -84 21.5 -155.5t59.5 -123.5t91 -82t115 -30q59 0 118.5 30t98.5 70l145 -98q-125 -193 -368 -192q-100 0 -184.5 44 t-146 121.5t-95 184t-33.5 231.5z" />
<glyph unicode="D" horiz-adv-x="1017" d="M96 0v1135h318q117 0 214 -42t167.5 -118t109.5 -178.5t39 -225.5q0 -133 -41 -239.5t-113.5 -180t-171 -112.5t-215.5 -39h-307zM264 170h113q86 0 157.5 29.5t125 83t83 127t29.5 159.5q0 88 -29.5 162t-83 126t-125 81t-157.5 29h-113v-797z" />
<glyph unicode="E" horiz-adv-x="788" d="M96 0v1135h604v-168h-436v-301h273v-168h-273v-330h436v-168h-604z" />
<glyph unicode="F" horiz-adv-x="739" d="M96 0v1135h604v-168h-436v-301h281v-168h-281v-498h-168z" />
<glyph unicode="G" horiz-adv-x="1044" d="M78 567q0 270 117.5 426t339.5 156q129 0 223 -48t160 -161l-164 -111q-31 61 -95.5 99.5t-123.5 38.5q-135 0 -207 -97.5t-72 -302.5q0 -88 19.5 -161.5t56.5 -128t88 -85t115 -30.5q92 0 160.5 61.5t74.5 177.5h-219v168h422v-73q0 -98 -34 -189.5t-92.5 -162 t-139 -113.5t-172.5 -43q-102 0 -186.5 44t-145 121.5t-93 183t-32.5 230.5z" />
<glyph unicode="H" horiz-adv-x="966" d="M96 0v1135h168v-469h436v469h168v-1135h-168v498h-436v-498h-168z" />
<glyph unicode="I" horiz-adv-x="366" d="M96 0v1135h168v-1135h-168z" />
<glyph unicode="J" horiz-adv-x="618" d="M43 4v164q43 -4 81 -5h8q33 0 63 7q82 18 126 90t44 227v648h167v-723q0 -74 -24.5 -144.5t-68.5 -127t-105.5 -95.5t-134.5 -47q-4 -2 -19 -2h-20h-45q-23 0 -42.5 2t-29.5 6z" />
<glyph unicode="K" horiz-adv-x="972" d="M96 0v1135h168v-611l402 611h202l-329 -492l354 -643h-193l-272 475l-164 -244v-231h-168z" />
<glyph unicode="L" horiz-adv-x="774" d="M96 0v1135h168v-967h473v-168h-641z" />
<glyph unicode="M" horiz-adv-x="1134" d="M96 0v1135h232l247 -686l244 686h217v-1135h-168v827l-293 -827l-311 829v-829h-168z" />
<glyph unicode="N" horiz-adv-x="970" d="M90 0v1135h209l412 -809v809h168v-1135h-193l-428 844v-844h-168z" />
<glyph unicode="O" horiz-adv-x="1067" d="M78 567q0 272 129 424q130 150 317 150h11q201 0 327 -152q127 -152 127 -422q0 -268 -127 -426q-122 -150 -317 -149h-10q-193 0 -326 151q-127 152 -131 424zM246 567q0 -104 22.5 -180t61.5 -126t91 -74.5t114 -24.5q123 0 205.5 99t82.5 306q0 205 -76.5 306.5 t-211.5 101.5q-129 0 -209 -101.5t-80 -306.5z" />
<glyph unicode="P" horiz-adv-x="892" d="M96 0v1135h400h19q146 0 237 -86q96 -92 98 -258q0 -166 -97.5 -255.5t-256.5 -89.5h-232v-446h-168zM264 614h244q170 0 174 170q-4 182 -174 183h-244v-353z" />
<glyph unicode="Q" horiz-adv-x="1064" d="M72 567q0 272 129 424q128 150 317 150h10q201 0 328 -152t127 -422q0 -268 -127 -426l-6 -6l88 -119l-125 -100l-88 119q-90 -43 -197 -43q-193 0 -325 151q-129 154 -131 424zM240 567q0 -104 22.5 -180t61 -126t91 -74.5t113.5 -24.5q57 0 93 14l-150 203l125 106 l152 -209q70 100 69 291q0 205 -76.5 306.5t-212.5 101.5q-129 0 -208.5 -101.5t-79.5 -306.5z" />
<glyph unicode="R" horiz-adv-x="935" d="M96 0v1135h400h19q146 0 237 -86q96 -92 98 -258q0 -168 -98 -256q-49 -47 -117 -68l219 -467h-180l-211 446h-199v-446h-168zM264 614h244q170 0 174 170q-4 182 -174 183h-244v-353z" />
<glyph unicode="S" horiz-adv-x="851" d="M80 80l57 170q53 -39 122 -63.5t151 -24.5q94 0 145 40t51 126q0 61 -54 101t-140 87q-47 27 -105.5 52.5t-109 61.5t-84 89t-33.5 137q0 131 95 209t255 78q86 0 163 -17.5t132 -60.5l-47 -172q-51 39 -107.5 57.5t-142.5 18.5q-72 0 -126 -22.5t-54 -82.5 q0 -37 24.5 -66.5t65.5 -57t92 -54.5t105 -57q104 -59 171.5 -135t67.5 -168q0 -180 -98 -257t-262 -77q-92 0 -174 20.5t-160 67.5z" />
<glyph unicode="T" horiz-adv-x="894" d="M57 967v168h781v-168h-295v-967h-187v967h-299z" />
<glyph unicode="U" horiz-adv-x="954" d="M90 461v674h168v-715q0 -141 60.5 -198.5t164.5 -57.5q100 0 155.5 57.5t55.5 198.5v715h170v-672q0 -223 -97 -345t-284 -122q-186 0 -289.5 121t-103.5 344z" />
<glyph unicode="V" horiz-adv-x="985" d="M37 1135h180l275 -963l266 963h182l-334 -1135h-235z" />
<glyph unicode="W" horiz-adv-x="1490" d="M51 1135h180l211 -961l205 961h184l211 -961l205 961h185l-273 -1135h-235l-183 758l-182 -758h-235z" />
<glyph unicode="X" horiz-adv-x="1036" d="M84 1135h192l242 -408l242 408h192l-338 -572l336 -563h-196l-236 399l-235 -399h-197l334 563z" />
<glyph unicode="Y" horiz-adv-x="966" d="M55 1135h191l239 -519l238 519h188l-331 -701v-434h-191v430z" />
<glyph unicode="Z" horiz-adv-x="897" d="M92 0v182l520 785h-520v168h711v-187l-522 -780h524v-168h-713z" />
<glyph unicode="[" horiz-adv-x="462" d="M96 -279v1461h316v-125h-205v-1211h205v-125h-316z" />
<glyph unicode="\" horiz-adv-x="675" d="M37 1182h133l467 -1413h-129z" />
<glyph unicode="]" horiz-adv-x="466" d="M51 -154h201v1211h-201v125h316v-1461h-316v125z" />
<glyph unicode="^" horiz-adv-x="798" d="M49 690q0 18 12 35l336 549l338 -549q14 -14 15 -35q0 -25 -27 -24q-10 0 -12 2l-181 45v-434h-264v434l-180 -45q-2 -2 -10 -2q-27 -1 -27 24z" />
<glyph unicode="_" horiz-adv-x="1097" d="M96 -27h903v-223h-903v223z" />
<glyph unicode="`" horiz-adv-x="319" d="M29 1370h114l103 -182h-60z" />
<glyph unicode="a" horiz-adv-x="800" d="M61 297q0 147 85 225t223 78q49 0 92 -11t78 -50q0 55 -11.5 89t-32 52t-52 25.5t-70.5 7.5q-47 0 -81 -15.5t-61 -38.5l-75 129q41 45 102 70t137 25q141 0 227.5 -85t86.5 -233v-565h-168v76q-20 -31 -73.5 -57.5t-129.5 -26.5q-57 0 -107.5 20.5t-88.5 60.5t-59.5 96 t-21.5 128zM231 301q0 -61 46.5 -99t109.5 -38q20 0 46 6t49.5 17.5t40 27.5t16.5 39v111q0 16 -13.5 31.5t-34 26.5t-43 17t-42.5 6q-175 0 -175 -145z" />
<glyph unicode="b" horiz-adv-x="823" d="M96 0v1085l168 74v-356q27 35 82 58.5t117 23.5q150 0 232.5 -121t82.5 -338q0 -92 -22.5 -172t-65.5 -139.5t-103.5 -93t-135.5 -33.5q-57 0 -103.5 22.5t-83.5 87.5v-98h-168zM264 303q4 -20 18.5 -46t36 -47.5t49 -36.5t60.5 -15q45 0 81 21.5t60.5 57t36.5 85 t12 104.5q0 137 -43 213t-153 76q-61 0 -101 -46t-57 -114v-252z" />
<glyph unicode="c" horiz-adv-x="733" d="M51 444q0 96 26.5 178.5t75 141.5t114 92t145.5 33q78 0 138 -31t101 -80l-127 -108q-16 23 -40.5 35t-71.5 12q-88 0 -138.5 -76t-50.5 -199q0 -285 189 -284q76 0 125 53l139 -98q-104 -129 -264 -129q-84 0 -151.5 32.5t-114 93t-71 145.5t-24.5 189z" />
<glyph unicode="d" horiz-adv-x="837" d="M47 418q0 96 24.5 181t68.5 147.5t103.5 98.5t131.5 36q66 0 115 -17.5t81 -64.5v286l168 74v-1157h-168v90q-31 -37 -76.5 -69.5t-111.5 -32.5q-74 0 -135.5 32.5t-105.5 90t-69.5 136.5t-25.5 169zM215 414q0 -111 48 -180.5t140 -69.5q55 0 105.5 33.5t62.5 103.5v248 q-12 49 -56 95t-107 46q-104 0 -148.5 -69.5t-44.5 -206.5z" />
<glyph unicode="e" d="M59 430q0 106 25 193.5t72 149t114.5 94t151.5 32.5q156 0 250 -116q92 -113 92 -329q0 -33 -1 -60q-1 -26 -1 -52h-531v-4q0 -41 17.5 -74t45.5 -55.5t61.5 -34.5t68.5 -12q45 0 79 12t58 43l113 -104q-49 -66 -113.5 -94.5t-142.5 -28.5q-180 2 -269.5 115.5 t-89.5 324.5zM231 510h363q-4 94 -51 158.5t-123 64.5q-82 0 -133.5 -64.5t-55.5 -158.5z" />
<glyph unicode="f" horiz-adv-x="518" d="M57 707v167h93q0 147 57 229.5t176 82.5q39 0 82 -6v-154q-44 7 -75 7h-7q-33 -1 -52.5 -17.5t-27.5 -50t-8 -91.5h172v-167h-164v-707h-153v707h-93z" />
<glyph unicode="g" horiz-adv-x="817" d="M51 451q0 88 25.5 166.5t69.5 137t104.5 92.5t132.5 34q55 0 99 -16.5t79 -57.5v67h168v-741q0 -98 -21.5 -185t-63.5 -154.5t-104.5 -114t-144.5 -60.5l-20 182q182 43 182 267q-27 -39 -64.5 -57.5t-117.5 -18.5q-84 0 -144.5 35.5t-100.5 98t-59.5 146t-19.5 179.5z M225 449q0 -135 41 -211t127 -76q78 0 123 39t45 110v238q-2 45 -16.5 77.5t-35 52t-44 29t-43.5 9.5q-104 0 -150.5 -69.5t-46.5 -198.5z" />
<glyph unicode="h" horiz-adv-x="800" d="M94 0v1063l168 106v-417q63 131 211 131q55 0 104.5 -23.5t85 -65.5t56 -101.5t20.5 -129.5v-563h-168v545q0 35 -13 65.5t-34.5 54t-50.5 37t-57 13.5q-29 0 -56.5 -12.5t-49 -36t-35 -54t-13.5 -67.5v-545h-168z" />
<glyph unicode="i" horiz-adv-x="362" d="M86 1077q0 49 24.5 82t69.5 33q39 0 66.5 -33t27.5 -82q0 -47 -28.5 -79.5t-65.5 -32.5q-43 0 -68.5 32.5t-25.5 79.5zM96 0v874h168v-874h-168z" />
<glyph unicode="j" horiz-adv-x="346" d="M-51 -227q41 12 68.5 41.5t43 70.5t21.5 90.5t6 102.5v796h166v-892q0 -47 -13.5 -102.5t-43 -108t-76.5 -94.5t-115 -60zM78 1077q0 49 28.5 82t65.5 33q43 0 68.5 -33t25.5 -82q0 -47 -26.5 -79.5t-67.5 -32.5q-37 0 -65.5 32.5t-28.5 79.5z" />
<glyph unicode="k" horiz-adv-x="788" d="M96 0v1069l168 100v-618l236 285h215l-238 -295l271 -541h-189l-203 408l-92 -111v-297h-168z" />
<glyph unicode="l" horiz-adv-x="362" d="M92 0v1063l168 106v-1169h-168z" />
<glyph unicode="m" horiz-adv-x="1312" d="M96 0v870h168v-100q33 59 89.5 87t133.5 28q106 0 191 -90q31 41 89 65.5t151 24.5q141 0 221 -84t80 -226v-575h-168v545q0 172 -150 172q-162 0 -162 -174v-543h-168v541q0 96 -43 134t-104 38q-68 0 -114 -41t-46 -127v-545h-168z" />
<glyph unicode="n" horiz-adv-x="833" d="M96 0v874h168v-108q31 59 87.5 88t131.5 29q117 0 187.5 -83t70.5 -225v-575h-168v543q0 86 -38.5 130t-108.5 44t-116 -44t-46 -130v-543h-168z" />
<glyph unicode="o" d="M66 436q0 94 25.5 177t71.5 143.5t110.5 95.5t142.5 35q80 0 144.5 -34t110.5 -94.5t71.5 -143.5t25.5 -179q0 -203 -92 -324.5t-260 -121.5q-166 0 -258 117.5t-92 328.5zM233 434q0 -272 185 -272q182 0 182 272q0 281 -184 281q-88 0 -135.5 -78t-47.5 -203z" />
<glyph unicode="p" horiz-adv-x="823" d="M96 -369v1243h168v-98q33 53 82 82t107 29q82 0 143 -32t101 -88t59.5 -133t19.5 -169q0 -102 -20.5 -189.5t-61.5 -152t-105.5 -100t-152.5 -35.5q-41 0 -89 17.5t-83 62.5v-326zM264 317q0 -25 14.5 -53t38 -51t54 -38t61.5 -15q51 0 87 22.5t57.5 62.5t30.5 94t9 118 q0 55 -9 103t-31.5 83t-58.5 54.5t-89 19.5q-27 0 -55.5 -14.5t-53 -37t-40 -51t-15.5 -55.5v-242z" />
<glyph unicode="q" horiz-adv-x="827" d="M51 465q0 92 19.5 169t59.5 133t100.5 88t144.5 32q57 0 106 -29t82 -82v98h168v-1132l-168 -107v433q-35 -45 -83 -62.5t-89 -17.5q-88 0 -152.5 35.5t-105.5 100t-61.5 152t-20.5 189.5zM211 457q0 -63 9 -117.5t30.5 -94.5t56.5 -62.5t88 -22.5q31 0 61.5 15t54.5 38 t38 51.5t14 52.5v242q0 27 -15.5 55.5t-40 51t-53 37t-55.5 14.5q-53 0 -89 -19.5t-58.5 -54.5t-31.5 -83t-9 -103z" />
<glyph unicode="r" horiz-adv-x="550" d="M96 0v874h168v-104q14 53 58.5 82t99.5 29q49 0 84 -23l-57 -168q-41 23 -62 23q-66 0 -94.5 -50.5t-28.5 -123.5v-539h-168z" />
<glyph unicode="s" horiz-adv-x="710" d="M55 63l62 156q43 -35 103.5 -47t117.5 -12q63 0 105 23.5t42 76.5q0 39 -29.5 68.5t-101.5 42.5q-57 10 -110.5 25.5t-94 45t-65.5 74.5t-25 117q0 66 23.5 114t67 78.5t101.5 45t128 14.5q137 0 229 -68l-51 -174q-41 41 -88 55.5t-107 14.5q-47 0 -86 -12 q-46 -13 -45 -68q0 -42 48 -64q53 -25 145 -45q104 -23 166.5 -81t62.5 -173q0 -76 -26.5 -129t-72.5 -87t-108.5 -49t-132.5 -15q-59 0 -125.5 17t-132.5 56z" />
<glyph unicode="t" horiz-adv-x="561" d="M57 707v167h93v158l167 94v-252h158v-167h-158v-375q0 -55 5.5 -89t16.5 -52.5t30.5 -25.5t48.5 -7q18 0 38.5 6t43.5 14l-27 -176q-39 -8 -63.5 -11t-53.5 -3q-98 0 -152 73.5t-54 208.5v437h-93z" />
<glyph unicode="u" horiz-adv-x="837" d="M92 297v577h168v-520q0 -86 37 -139t109 -53q70 0 117.5 53t47.5 139v520h168v-874h-168v106q-33 -61 -92 -88.5t-129 -27.5q-117 0 -187.5 83t-70.5 224z" />
<glyph unicode="v" horiz-adv-x="782" d="M49 874h178l168 -653l164 653h178l-248 -874h-190z" />
<glyph unicode="w" horiz-adv-x="1286" d="M76 874h180l150 -638l145 638h184l150 -638l145 638h180l-231 -874h-191l-145 549l-143 -549h-191z" />
<glyph unicode="x" horiz-adv-x="720" d="M25 874h194l150 -270l149 270h195l-252 -438l250 -436h-193l-149 268l-150 -268h-192l249 436z" />
<glyph unicode="y" horiz-adv-x="804" d="M66 874h178l168 -653l163 653h179l-357 -1243h-176l105 365z" />
<glyph unicode="z" horiz-adv-x="755" d="M94 0v150l373 557h-354v167h571v-147l-375 -559h381v-168h-596z" />
<glyph unicode="{" horiz-adv-x="741" d="M39 385v131q137 6 195.5 69.5t58.5 209.5v116q0 270 237 271h142v-113h-6q-70 0 -114 -9t-69.5 -41t-35 -93.5t-9.5 -165.5q0 -96 -40 -158.5t-144 -122.5v-57q184 -102 184 -279q0 -104 8.5 -165.5t33 -93t68.5 -41t116 -9.5h8v-113h-142q-238 0 -237 271v114 q0 150 -58.5 212.5t-195.5 66.5z" />
<glyph unicode="|" horiz-adv-x="264" d="M96 -279v1461h47v-1461h-47z" />
<glyph unicode="}" horiz-adv-x="743" d="M68 -166h10q70 0 115 9.5t69.5 41t33.5 93t9 165.5q0 170 191 279v57q-106 59 -148.5 123t-42.5 158q0 104 -9 165.5t-33.5 93.5t-70 41t-114.5 9h-10v113h149q233 0 234 -271v-116q0 -143 59 -208t195 -71v-131q-135 0 -194.5 -61.5t-59.5 -217.5v-114q0 -270 -234 -271 h-149v113z" />
<glyph unicode="~" horiz-adv-x="913" d="M55 406q33 35 81 65.5t102.5 48t107.5 18.5t96 -24q80 -45 155 -47t134 68q33 -25 65.5 -48.5t67.5 -48.5q-37 -45 -92 -74.5t-116.5 -41t-121 -5t-102.5 30.5q-70 41 -134.5 21.5t-117.5 -68.5q-29 29 -60.5 54.5t-64.5 50.5z" />
<glyph unicode="&#xa1;" horiz-adv-x="342" d="M80 1024q0 47 24.5 81t65.5 34q39 0 66.5 -34t27.5 -81t-27.5 -81t-66.5 -34q-41 0 -65.5 34t-24.5 81zM102 4v483l17 306h102l17 -306v-483h-136z" />
<glyph unicode="&#xa2;" horiz-adv-x="798" d="M49 831q0 23 27 23l190 -45v434h264v-434l181 45h12q27 0 27 -23q0 -20 -15 -34l-338 -549l-336 549q-12 14 -12 34z" />
<glyph unicode="&#xa3;" horiz-adv-x="897" d="M82 0v168h20q29 0 51.5 24.5t38 63.5t23.5 86t10 92v92h-71v168h71v86q2 61 19.5 126t54.5 117t97.5 85t150.5 31q82 -2 141.5 -32t89.5 -97l-123 -103q-41 66 -110 66q-86 2 -119 -41t-35 -129v-109h215v-168h-215v-155q0 -23 -6 -53.5t-17.5 -61.5t-28.5 -55.5 t-40 -32.5h508v-168h-725z" />
<glyph unicode="&#xa4;" horiz-adv-x="917" d="M14 379v129h62v127l-62 4v123h88q45 182 158 282q106 100 275 101q195 0 307 -113l-99 -172q-41 45 -86 68q-53 29 -122 28q-82 0 -148 -47q-63 -47 -96 -147h395l-72 -127h-358q-2 -4 -2 -25v-102h289l-74 -129h-174q37 -109 100 -154q63 -49 146 -49q51 0 118 29 q37 18 66 41l121 -140q-121 -121 -311 -120q-158 0 -273 102q-113 100 -160 291h-88z" />
<glyph unicode="&#xa5;" horiz-adv-x="966" d="M55 1135h191l239 -519l238 519h188l-331 -701v-8h165v-125h-165v-63h165v-123h-165v-115h-191v115h-186v123h186v63h-186v125h186v4z" />
<glyph unicode="&#xa6;" horiz-adv-x="911" d="M51 453v327h355l-37 236q0 27 20 26q14 0 27 -12l448 -414l-448 -411q-12 -12 -27 -12q-20 0 -20 26l37 234h-355z" />
<glyph unicode="&#xa7;" horiz-adv-x="798" d="M49 690q0 18 12 35l336 549l338 -549q14 -14 15 -35q0 -25 -27 -24q-10 0 -12 2l-181 45v-434h-264v434l-180 -45q-2 -2 -10 -2q-27 -1 -27 24z" />
<glyph unicode="&#xa8;" horiz-adv-x="688" d="M111 1290q0 41 25.5 67.5t66.5 26.5q39 0 66.5 -26.5t27.5 -67.5q0 -39 -27.5 -66.5t-66.5 -27.5q-41 0 -66.5 27.5t-25.5 66.5zM393 1290q0 41 28 67.5t64 26.5q41 0 67 -26.5t26 -67.5q0 -39 -26 -66.5t-67 -27.5q-37 0 -64.5 27.5t-27.5 66.5z" />
<glyph unicode="&#xa9;" horiz-adv-x="1300" d="M0 565q0 117 45 220.5t122 180t180.5 122t219.5 45.5q117 0 220.5 -45.5t180 -122t122 -180t45.5 -220.5t-45.5 -220t-122 -180t-180 -122t-220.5 -45t-220 45t-180 122t-122 180t-45 220zM47 563q0 -109 41 -204t111.5 -165.5t166 -111.5t203.5 -41q109 0 204 41 t167 111.5t113 166t41 203.5q0 109 -41 204t-113 167t-167 112.5t-204 40.5t-204 -40.5t-165.5 -112.5t-111.5 -167t-41 -204zM281 557q0 76 19 139.5t55 110.5t87.5 73.5t116.5 26.5q158 0 227 -125l-94 -59q-49 70 -133 70q-78 0 -124 -62.5t-46 -173.5q0 -104 49 -169.5 t123 -65.5q37 0 73 17t58 44l88 -59q-78 -117 -221 -117q-61 0 -112.5 26.5t-88 73.5t-57 111.5t-20.5 138.5z" />
<glyph unicode="&#xaa;" horiz-adv-x="727" d="M131 793q-4 45 14.5 76.5t50 49t71.5 19.5t79 -12q-2 20 -15.5 33.5t-30.5 18.5t-36.5 2t-34.5 -15l-53 63q23 29 53.5 40t67.5 11q72 0 115 -44t43 -117v-279h-105l10 53q-16 -29 -40.5 -41t-47.5 -12q-59 0 -100 40t-41 114zM238 793q0 -23 16 -35.5t39 -12.5 q16 0 35.5 6.5t19.5 20.5v51q0 10 -15.5 17.5t-29.5 7.5q-65 0 -65 -55z" />
<glyph unicode="&#xab;" horiz-adv-x="765" d="M90 559v113l303 155v-104l-229 -107l229 -106v-102zM397 559v113l303 155v-104l-229 -107l229 -106v-102z" />
<glyph unicode="&#xac;" horiz-adv-x="796" d="M72 1243l551 -96q12 -2 23 -9.5t11 -23.5t-16 -27l-156 -124l254 -308l-190 -231l-252 307l-102 -188l-10 -16q-3 -5 -9 -5q-12 0 -19 12.5t-10 28.5z" />
<glyph unicode="&#xad;" horiz-adv-x="491" d="M96 528v168h295v-168h-295z" />
<glyph unicode="&#xae;" horiz-adv-x="1105" d="M96 723q0 88 34 167t95.5 138t145.5 94t184 35t186 -33.5t148.5 -92t97.5 -137.5t35 -171q0 -86 -36 -164t-98.5 -137.5t-148.5 -95t-184 -35.5q-100 0 -184 35.5t-145.5 95t-95.5 137.5t-34 164zM182 723q0 -66 25.5 -129.5t74 -112.5t117 -79.5t154.5 -30.5 q80 0 152.5 26.5t126 74.5t85 112.5t31.5 138.5q0 63 -29.5 126.5t-82 113t-125 80t-158.5 30.5t-154.5 -30.5t-117 -80t-74 -113t-25.5 -126.5zM412 481v469h168q66 0 104.5 -39t40.5 -110q0 -66 -43 -109l-16 -12q-8 -6 -19 -12l84 -187h-98l-80 172h-49v-172h-92z M504 750h78q49 0 49 51q0 55 -49 55h-78v-106z" />
<glyph unicode="&#xaf;" horiz-adv-x="604" d="M96 1192v119h410v-119h-410z" />
<glyph unicode="&#x2c9;" horiz-adv-x="604" d="M96 1192v119h410v-119h-410z" />
<glyph unicode="&#xb0;" horiz-adv-x="657" d="M76 909q0 51 18.5 96.5t51 79t78.5 53t102 19.5q55 0 101 -19.5t80 -52t53.5 -78.5t19.5 -98q0 -49 -19.5 -93t-53.5 -77.5t-81 -54t-100 -20.5q-55 0 -101.5 20.5t-79 54t-51 77.5t-18.5 93zM162 909q0 -61 43 -106t121 -45q76 0 124 45t48 106t-48.5 107.5t-123.5 46.5 q-78 0 -121 -46.5t-43 -107.5z" />
<glyph unicode="&#xb2;" horiz-adv-x="456" d="M66 561v60q0 49 9 84.5t25.5 63.5t39 50.5t50.5 44.5q10 8 20.5 14.5t22.5 10.5q23 12 39.5 25.5t18.5 50.5q0 51 -55 51q-29 0 -51.5 -13.5t-47.5 -54.5l-71 99q63 86 174 86q70 0 113.5 -38t43.5 -126v-2q0 -80 -42 -121t-95 -72q-33 -20 -53.5 -44.5t-24.5 -57.5h215 v-111h-331z" />
<glyph unicode="&#xb3;" horiz-adv-x="466" d="M78 657l90 68q25 -53 72 -53q59 0 61 63q-4 78 -65 78h-48v111h48q39 0 38 57q0 39 -36 43h-9q-29 0 -36 -39l-93 41q41 109 136 109q137 0 139 -150q0 -70 -43 -106q72 -45 76 -142q-2 -174 -168 -178q-111 0 -162 98z" />
<glyph unicode="&#xb4;" horiz-adv-x="317" d="M59 1194l103 182h114l-157 -182h-60z" />
<glyph unicode="&#xb5;" horiz-adv-x="851" d="M-31 -68q51 33 81 73t44.5 86t15.5 97.5t-4 108.5v577h168v-520q0 -86 37 -139t109 -53q70 0 118 53t48 139v520h168v-632l2 -31q0 -35 9 -57.5t44 -34.5l-57 -156q-66 18 -102 61.5t-52 100.5q-33 -68 -94.5 -102.5t-138.5 -32.5q-33 0 -61 11t-54 24 q-20 -80 -60 -130.5t-118 -97.5z" />
<glyph unicode="&#xb8;" horiz-adv-x="370" d="M63 -283l25 82q49 -12 98 -6q63 8 60 53q2 45 -60 48q-29 2 -80 -15v201h74v-107q150 6 150 -125q2 -143 -154 -145q-37 -2 -65 2t-48 12z" />
<glyph unicode="&#xb9;" horiz-adv-x="337" d="M94 979v106q47 0 51 50h84v-568h-94v412h-41z" />
<glyph unicode="&#xba;" horiz-adv-x="649" d="M55.377 907.023q0 45.9277 19.8506 86.4805t55.6582 70.1113q35.8086 29.5596 86.0186 46.6602q50.209 17.1006 110.928 17.1006q62.2754 0 112.485 -16.6113q50.209 -16.6123 86.0176 -46.1719t55.6582 -70.1123q19.8506 -40.5527 19.8506 -87.457 q0 -99.1826 -71.6172 -158.546q-71.6162 -59.3633 -202.395 -59.3633q-129.222 0 -200.838 57.4092q-71.6172 57.4082 -71.6172 160.5zM185.377 906.047q0 -132.896 144.012 -132.896q141.677 0 141.677 132.896q0 137.292 -143.233 137.292q-68.5029 0 -105.479 -38.1094 q-36.9766 -38.1094 -36.9766 -99.1826z" />
<glyph unicode="&#xbb;" horiz-adv-x="790" d="M113 410v104l229 107l-229 106v102l303 -151v-113zM420 410v104l229 107l-229 106v102l303 -151v-113z" />
<glyph unicode="&#xbc;" horiz-adv-x="1130" d="M63 0l873 1135h86l-875 -1135h-84zM113 975v110q57 0 61 50h100v-584h-112v424h-49zM633 141v115l217 328h119v-330h61v-113h-61v-143h-113v143h-223zM758 254h98v149z" />
<glyph unicode="&#xbd;" horiz-adv-x="1224" d="M63 0l875 1135h86l-877 -1135h-84zM125 971v110q57 0 61 49h103v-583h-115v424h-49zM758 0v59q0 51 9 89t26.5 67t42 51.5t55.5 44.5q14 8 24.5 14.5t20.5 10.5q25 12 43 26.5t20 51.5q0 53 -61 53q-29 0 -52.5 -13.5t-49.5 -56.5l-78 101q72 90 186 90q74 0 121 -39 t47 -131v-2q0 -80 -44 -124t-101 -73q-35 -23 -57.5 -47.5t-26.5 -58.5h229v-113h-354z" />
<glyph unicode="&#xbe;" horiz-adv-x="1126" d="M63 0l873 1135h86l-875 -1135h-84zM84 643l96 68q25 -53 76 -54q61 0 66 66q-4 80 -70 80h-49v112h49q41 0 41 58q0 45 -39 47h-8q-33 0 -39 -41l-101 43q43 111 146 111q143 0 147 -154q0 -76 -45 -109q78 -53 80 -145q-4 -182 -178 -184q-119 0 -172 102zM649 141v115 l217 328h119v-330h62v-113h-62v-143h-113v143h-223zM774 254h98v149z" />
<glyph unicode="&#xbf;" horiz-adv-x="718" d="M57 307q0 53 6.5 92t19.5 70t34.5 57.5t54.5 55.5q14 12 35.5 32.5t43 54t39 81t21.5 108.5h162v-16q0 -63 -7 -110.5t-24.5 -87.5t-47 -78t-77.5 -83q-80 -80 -79 -164q0 -121 116 -120q53 0 118 29.5t106 72.5l79 -158q-98 -137 -299 -137q-135 0 -218 79t-83 222z M299 1065q0 47 27.5 81t66.5 34t66.5 -34t27.5 -81t-27.5 -81t-66.5 -34t-66.5 34t-27.5 81z" />
<glyph unicode="&#xc0;" horiz-adv-x="923" d="M10 0l334 1135h236l333 -1135h-180l-59 207h-424l-57 -207h-183zM303 399h315l-159 564zM277 1370h114l103 -182h-60z" />
<glyph unicode="&#xc1;" horiz-adv-x="923" d="M10 0l334 1135h236l333 -1135h-180l-59 207h-424l-57 -207h-183zM303 399h315l-159 564zM397 1194l103 182h114l-157 -182h-60z" />
<glyph unicode="&#xc2;" horiz-adv-x="923" d="M10 0l334 1135h236l333 -1135h-180l-59 207h-424l-57 -207h-183zM303 399h315l-159 564zM248 1190l151 180h113l155 -180h-104l-107 127l-106 -127h-102z" />
<glyph unicode="&#xc3;" horiz-adv-x="923" d="M10 0l334 1135h236l333 -1135h-180l-59 207h-424l-57 -207h-183zM303 399h315l-159 564zM211 1241q57 106 149 102q12 0 37 -9t52.5 -20t54 -21.5t41.5 -12.5q68 -4 96 59l49 -55q-6 -25 -22.5 -42t-37 -27.5t-42 -14.5t-37.5 -4q-12 0 -38 9t-52.5 21.5t-50 21.5 t-33.5 9q-53 4 -107 -67z" />
<glyph unicode="&#xc4;" horiz-adv-x="923" d="M10 0l334 1135h236l333 -1135h-180l-59 207h-424l-57 -207h-183zM303 399h315l-159 564zM226 1290q0 41 25.5 67.5t66.5 26.5q39 0 66.5 -26.5t27.5 -67.5q0 -39 -27.5 -66.5t-66.5 -27.5q-41 0 -66.5 27.5t-25.5 66.5zM508 1290q0 41 28 67.5t64 26.5q41 0 67 -26.5 t26 -67.5q0 -39 -26 -66.5t-67 -27.5q-37 0 -64.5 27.5t-27.5 66.5z" />
<glyph unicode="&#xc5;" horiz-adv-x="923" d="M10 0l334 1135h236l333 -1135h-180l-59 207h-424l-57 -207h-183zM303 399h315l-159 564zM334 1309q0 55 34.5 93t87.5 38t89 -39t36 -92t-35.5 -88t-89.5 -35q-53 0 -87.5 35t-34.5 88zM379 1313q0 -37 23.5 -60.5t56.5 -23.5q35 0 59 23.5t24 60.5q0 35 -25.5 59.5 t-57.5 24.5q-31 0 -55.5 -24.5t-24.5 -59.5z" />
<glyph unicode="&#xc6;" horiz-adv-x="1306" d="M66 0l378 1135h770v-168h-364v-318h330v-168h-330v-313h364v-168h-565v479h-211l-157 -479h-215zM483 649h166v318h-59z" />
<glyph unicode="&#xc7;" horiz-adv-x="987" d="M76 567q0 125 31.5 230.5t91 182.5t144.5 121t192 44q260 0 378 -205l-155 -98q-45 59 -99.5 86.5t-123.5 27.5q-129 0 -205 -105.5t-76 -283.5q0 -84 21.5 -155.5t59.5 -123.5t91 -82t115 -30q59 0 118.5 30t98.5 70l145 -98q-125 -193 -368 -192q-100 0 -184.5 44 t-146 121.5t-95 184t-33.5 231.5zM409 -283l25 82q49 -12 98 -6q63 8 60 53q2 45 -60 48q-29 2 -80 -15v201h74v-107q150 6 150 -125q2 -143 -154 -145q-37 -2 -65 2t-48 12z" />
<glyph unicode="&#xc8;" horiz-adv-x="788" d="M96 0v1135h604v-168h-436v-301h273v-168h-273v-330h436v-168h-604zM246 1370h114l103 -182h-60z" />
<glyph unicode="&#xc9;" horiz-adv-x="788" d="M96 0v1135h604v-168h-436v-301h273v-168h-273v-330h436v-168h-604zM311 1194l103 182h114l-157 -182h-60z" />
<glyph unicode="&#xca;" horiz-adv-x="788" d="M96 0v1135h604v-168h-436v-301h273v-168h-273v-330h436v-168h-604zM183 1190l151 180h113l155 -180h-104l-107 127l-106 -127h-102z" />
<glyph unicode="&#xcb;" horiz-adv-x="788" d="M96 0v1135h604v-168h-436v-301h273v-168h-273v-330h436v-168h-604zM142 1290q0 41 25.5 67.5t66.5 26.5q39 0 66.5 -26.5t27.5 -67.5q0 -39 -27.5 -66.5t-66.5 -27.5q-41 0 -66.5 27.5t-25.5 66.5zM424 1290q0 41 28 67.5t64 26.5q41 0 67 -26.5t26 -67.5 q0 -39 -26 -66.5t-67 -27.5q-37 0 -64.5 27.5t-27.5 66.5z" />
<glyph unicode="&#xcc;" horiz-adv-x="366" d="M96 0v1135h168v-1135h-168zM11 1370h114l103 -182h-60z" />
<glyph unicode="&#xcd;" horiz-adv-x="366" d="M96 0v1135h168v-1135h-168zM137 1194l103 182h114l-157 -182h-60z" />
<glyph unicode="&#xce;" horiz-adv-x="366" d="M96 0v1135h168v-1135h-168zM-24 1190l151 180h113l155 -180h-104l-107 127l-106 -127h-102z" />
<glyph unicode="&#xcf;" horiz-adv-x="366" d="M96 0v1135h168v-1135h-168zM-43 1290q0 41 25.5 67.5t66.5 26.5q39 0 66.5 -26.5t27.5 -67.5q0 -39 -27.5 -66.5t-66.5 -27.5q-41 0 -66.5 27.5t-25.5 66.5zM239 1290q0 41 28 67.5t64 26.5q41 0 67 -26.5t26 -67.5q0 -39 -26 -66.5t-67 -27.5q-37 0 -64.5 27.5 t-27.5 66.5z" />
<glyph unicode="&#xd0;" horiz-adv-x="1017" d="M43 489v168h295v-168h-295zM96 0v1135h318q117 0 214 -42t167.5 -118t109.5 -178.5t39 -225.5q0 -133 -41 -239.5t-113.5 -180t-171 -112.5t-215.5 -39h-307zM264 170h113q86 0 157.5 29.5t125 83t83 127t29.5 159.5q0 88 -29.5 162t-83 126t-125 81t-157.5 29h-113v-797 z" />
<glyph unicode="&#xd1;" horiz-adv-x="970" d="M90 0v1135h209l412 -809v809h168v-1135h-193l-428 844v-844h-168zM215 1241q57 106 149 102q12 0 37 -9t52.5 -20t54 -21.5t41.5 -12.5q68 -4 96 59l49 -55q-6 -25 -22.5 -42t-37 -27.5t-42 -14.5t-37.5 -4q-12 0 -38 9t-52.5 21.5t-50 21.5t-33.5 9q-53 4 -107 -67z" />
<glyph unicode="&#xd2;" horiz-adv-x="1067" d="M78 567q0 272 129 424q130 150 317 150h11q201 0 327 -152q127 -152 127 -422q0 -268 -127 -426q-122 -150 -317 -149h-10q-193 0 -326 151q-127 152 -131 424zM246 567q0 -104 22.5 -180t61.5 -126t91 -74.5t114 -24.5q123 0 205.5 99t82.5 306q0 205 -76.5 306.5 t-211.5 101.5q-129 0 -209 -101.5t-80 -306.5zM336 1370h114l103 -182h-60z" />
<glyph unicode="&#xd3;" horiz-adv-x="1067" d="M78 567q0 272 129 424q130 150 317 150h11q201 0 327 -152q127 -152 127 -422q0 -268 -127 -426q-122 -150 -317 -149h-10q-193 0 -326 151q-127 152 -131 424zM246 567q0 -104 22.5 -180t61.5 -126t91 -74.5t114 -24.5q123 0 205.5 99t82.5 306q0 205 -76.5 306.5 t-211.5 101.5q-129 0 -209 -101.5t-80 -306.5zM458 1194l103 182h114l-157 -182h-60z" />
<glyph unicode="&#xd4;" horiz-adv-x="1067" d="M78 567q0 272 129 424q130 150 317 150h11q201 0 327 -152q127 -152 127 -422q0 -268 -127 -426q-122 -150 -317 -149h-10q-193 0 -326 151q-127 152 -131 424zM246 567q0 -104 22.5 -180t61.5 -126t91 -74.5t114 -24.5q123 0 205.5 99t82.5 306q0 205 -76.5 306.5 t-211.5 101.5q-129 0 -209 -101.5t-80 -306.5zM322 1190l151 180h113l155 -180h-104l-107 127l-106 -127h-102z" />
<glyph unicode="&#xd5;" horiz-adv-x="1067" d="M78 567q0 272 129 424q130 150 317 150h11q201 0 327 -152q127 -152 127 -422q0 -268 -127 -426q-122 -150 -317 -149h-10q-193 0 -326 151q-127 152 -131 424zM246 567q0 -104 22.5 -180t61.5 -126t91 -74.5t114 -24.5q123 0 205.5 99t82.5 306q0 205 -76.5 306.5 t-211.5 101.5q-129 0 -209 -101.5t-80 -306.5zM285 1241q57 106 149 102q12 0 37 -9t52.5 -20t54 -21.5t41.5 -12.5q68 -4 96 59l49 -55q-6 -25 -22.5 -42t-37 -27.5t-42 -14.5t-37.5 -4q-12 0 -38 9t-52.5 21.5t-50 21.5t-33.5 9q-53 4 -107 -67z" />
<glyph unicode="&#xd6;" horiz-adv-x="1067" d="M78 567q0 272 129 424q130 150 317 150h11q201 0 327 -152q127 -152 127 -422q0 -268 -127 -426q-122 -150 -317 -149h-10q-193 0 -326 151q-127 152 -131 424zM246 567q0 -104 22.5 -180t61.5 -126t91 -74.5t114 -24.5q123 0 205.5 99t82.5 306q0 205 -76.5 306.5 t-211.5 101.5q-129 0 -209 -101.5t-80 -306.5zM299 1290q0 41 25.5 67.5t66.5 26.5q39 0 66.5 -26.5t27.5 -67.5q0 -39 -27.5 -66.5t-66.5 -27.5q-41 0 -66.5 27.5t-25.5 66.5zM581 1290q0 41 28 67.5t64 26.5q41 0 67 -26.5t26 -67.5q0 -39 -26 -66.5t-67 -27.5 q-37 0 -64.5 27.5t-27.5 66.5z" />
<glyph unicode="&#xd7;" horiz-adv-x="884" d="M88 150l274 358l-274 360l80 105l270 -361l277 361l82 -105l-277 -360l277 -358l-82 -105l-277 358l-270 -358z" />
<glyph unicode="&#xd8;" horiz-adv-x="1067" d="M78 567q0 272 129 424q133 154 328 150q133 0 227 -64l33 56h137l-78 -134q2 -2 3 -4t5 -6q127 -152 127 -422q0 -268 -127 -426q-125 -154 -327 -149q-131 0 -232 67l-35 -59h-133l80 137l-6 6q-127 152 -131 424zM246 567q0 -172 59 -274l375 643q-57 39 -145 39 q-129 0 -209 -101.5t-80 -306.5zM389 205q63 -43 146 -43q123 0 205.5 99t82.5 306q0 176 -59 279z" />
<glyph unicode="&#xd9;" horiz-adv-x="954" d="M90 461v674h168v-715q0 -141 60.5 -198.5t164.5 -57.5q100 0 155.5 57.5t55.5 198.5v715h170v-672q0 -223 -97 -345t-284 -122q-186 0 -289.5 121t-103.5 344zM293 1370h114l103 -182h-60z" />
<glyph unicode="&#xda;" horiz-adv-x="954" d="M90 461v674h168v-715q0 -141 60.5 -198.5t164.5 -57.5q100 0 155.5 57.5t55.5 198.5v715h170v-672q0 -223 -97 -345t-284 -122q-186 0 -289.5 121t-103.5 344zM395 1194l103 182h114l-157 -182h-60z" />
<glyph unicode="&#xdb;" horiz-adv-x="954" d="M90 461v674h168v-715q0 -141 60.5 -198.5t164.5 -57.5q100 0 155.5 57.5t55.5 198.5v715h170v-672q0 -223 -97 -345t-284 -122q-186 0 -289.5 121t-103.5 344zM265 1190l151 180h113l155 -180h-104l-107 127l-106 -127h-102z" />
<glyph unicode="&#xdc;" horiz-adv-x="954" d="M90 461v674h168v-715q0 -141 60.5 -198.5t164.5 -57.5q100 0 155.5 57.5t55.5 198.5v715h170v-672q0 -223 -97 -345t-284 -122q-186 0 -289.5 121t-103.5 344zM250 1290q0 41 25.5 67.5t66.5 26.5q39 0 66.5 -26.5t27.5 -67.5q0 -39 -27.5 -66.5t-66.5 -27.5 q-41 0 -66.5 27.5t-25.5 66.5zM532 1290q0 41 28 67.5t64 26.5q41 0 67 -26.5t26 -67.5q0 -39 -26 -66.5t-67 -27.5q-37 0 -64.5 27.5t-27.5 66.5z" />
<glyph unicode="&#xdd;" horiz-adv-x="966" d="M55 1135h191l239 -519l238 519h188l-331 -701v-434h-191v430zM374 1194l103 182h114l-157 -182h-60z" />
<glyph unicode="&#xde;" horiz-adv-x="841" d="M96 0v1135h168v-181h125q90 0 166 -22.5t130 -67.5t85 -111.5t31 -152.5q0 -92 -34 -163.5t-92.5 -122t-134 -77t-157.5 -26.5h-119v-211h-168zM264 379h111q74 0 122 13.5t75.5 41t39 68.5t11.5 94q0 55 -22.5 91t-58.5 58.5t-82 31.5t-95 9h-101v-407z" />
<glyph unicode="&#xdf;" horiz-adv-x="903" d="M92 0v766q0 186 85 281.5t239 95.5q68 0 128 -20.5t106 -58.5t73 -92t27 -124q0 -49 -14.5 -86t-37 -64.5t-51.5 -46t-59 -30.5q119 -16 180 -87t61 -176q0 -78 -22.5 -143t-65.5 -112.5t-106.5 -75t-145.5 -27.5h-96v168h88q78 0 129.5 46t51.5 138q0 86 -63.5 132 t-180.5 44v154q96 0 130 37t34 129q0 63 -46.5 95t-123.5 32q-152 0 -152 -168v-807h-168z" />
<glyph unicode="&#xe0;" horiz-adv-x="800" d="M61 297q0 147 85 225t223 78q49 0 92 -11t78 -50q0 55 -11.5 89t-32 52t-52 25.5t-70.5 7.5q-47 0 -81 -15.5t-61 -38.5l-75 129q41 45 102 70t137 25q141 0 227.5 -85t86.5 -233v-565h-168v76q-20 -31 -73.5 -57.5t-129.5 -26.5q-57 0 -107.5 20.5t-88.5 60.5t-59.5 96 t-21.5 128zM231 301q0 -61 46.5 -99t109.5 -38q20 0 46 6t49.5 17.5t40 27.5t16.5 39v111q0 16 -13.5 31.5t-34 26.5t-43 17t-42.5 6q-175 0 -175 -145zM234 1118h114l103 -182h-60z" />
<glyph unicode="&#xe1;" horiz-adv-x="800" d="M61 297q0 147 85 225t223 78q49 0 92 -11t78 -50q0 55 -11.5 89t-32 52t-52 25.5t-70.5 7.5q-47 0 -81 -15.5t-61 -38.5l-75 129q41 45 102 70t137 25q141 0 227.5 -85t86.5 -233v-565h-168v76q-20 -31 -73.5 -57.5t-129.5 -26.5q-57 0 -107.5 20.5t-88.5 60.5t-59.5 96 t-21.5 128zM231 301q0 -61 46.5 -99t109.5 -38q20 0 46 6t49.5 17.5t40 27.5t16.5 39v111q0 16 -13.5 31.5t-34 26.5t-43 17t-42.5 6q-175 0 -175 -145zM346 942l103 182h114l-157 -182h-60z" />
<glyph unicode="&#xe2;" horiz-adv-x="800" d="M61 297q0 147 85 225t223 78q49 0 92 -11t78 -50q0 55 -11.5 89t-32 52t-52 25.5t-70.5 7.5q-47 0 -81 -15.5t-61 -38.5l-75 129q41 45 102 70t137 25q141 0 227.5 -85t86.5 -233v-565h-168v76q-20 -31 -73.5 -57.5t-129.5 -26.5q-57 0 -107.5 20.5t-88.5 60.5t-59.5 96 t-21.5 128zM231 301q0 -61 46.5 -99t109.5 -38q20 0 46 6t49.5 17.5t40 27.5t16.5 39v111q0 16 -13.5 31.5t-34 26.5t-43 17t-42.5 6q-175 0 -175 -145zM193 938l151 180h113l155 -180h-104l-107 127l-106 -127h-102z" />
<glyph unicode="&#xe3;" horiz-adv-x="800" d="M61 297q0 147 85 225t223 78q49 0 92 -11t78 -50q0 55 -11.5 89t-32 52t-52 25.5t-70.5 7.5q-47 0 -81 -15.5t-61 -38.5l-75 129q41 45 102 70t137 25q141 0 227.5 -85t86.5 -233v-565h-168v76q-20 -31 -73.5 -57.5t-129.5 -26.5q-57 0 -107.5 20.5t-88.5 60.5t-59.5 96 t-21.5 128zM231 301q0 -61 46.5 -99t109.5 -38q20 0 46 6t49.5 17.5t40 27.5t16.5 39v111q0 16 -13.5 31.5t-34 26.5t-43 17t-42.5 6q-175 0 -175 -145zM170 989q57 106 149 102q12 0 37 -9t52.5 -20t54 -21.5t41.5 -12.5q68 -4 96 59l49 -55q-6 -25 -22.5 -42t-37 -27.5 t-42 -14.5t-37.5 -4q-12 0 -38 9t-52.5 21.5t-50 21.5t-33.5 9q-53 4 -107 -67z" />
<glyph unicode="&#xe4;" horiz-adv-x="800" d="M61 297q0 147 85 225t223 78q49 0 92 -11t78 -50q0 55 -11.5 89t-32 52t-52 25.5t-70.5 7.5q-47 0 -81 -15.5t-61 -38.5l-75 129q41 45 102 70t137 25q141 0 227.5 -85t86.5 -233v-565h-168v76q-20 -31 -73.5 -57.5t-129.5 -26.5q-57 0 -107.5 20.5t-88.5 60.5t-59.5 96 t-21.5 128zM231 301q0 -61 46.5 -99t109.5 -38q20 0 46 6t49.5 17.5t40 27.5t16.5 39v111q0 16 -13.5 31.5t-34 26.5t-43 17t-42.5 6q-175 0 -175 -145zM174 1038q0 41 25.5 67.5t66.5 26.5q39 0 66.5 -26.5t27.5 -67.5q0 -39 -27.5 -66.5t-66.5 -27.5q-41 0 -66.5 27.5 t-25.5 66.5zM456 1038q0 41 28 67.5t64 26.5q41 0 67 -26.5t26 -67.5q0 -39 -26 -66.5t-67 -27.5q-37 0 -64.5 27.5t-27.5 66.5z" />
<glyph unicode="&#xe5;" horiz-adv-x="800" d="M61 297q0 147 85 225t223 78q49 0 92 -11t78 -50q0 55 -11.5 89t-32 52t-52 25.5t-70.5 7.5q-47 0 -81 -15.5t-61 -38.5l-75 129q41 45 102 70t137 25q141 0 227.5 -85t86.5 -233v-565h-168v76q-20 -31 -73.5 -57.5t-129.5 -26.5q-57 0 -107.5 20.5t-88.5 60.5t-59.5 96 t-21.5 128zM231 301q0 -61 46.5 -99t109.5 -38q20 0 46 6t49.5 17.5t40 27.5t16.5 39v111q0 16 -13.5 31.5t-34 26.5t-43 17t-42.5 6q-175 0 -175 -145zM289 1057q0 55 34.5 93t87.5 38t89 -39t36 -92t-35.5 -88t-89.5 -35q-53 0 -87.5 35t-34.5 88zM334 1061 q0 -37 23.5 -60.5t56.5 -23.5q35 0 59 23.5t24 60.5q0 35 -25.5 59.5t-57.5 24.5q-31 0 -55.5 -24.5t-24.5 -59.5z" />
<glyph unicode="&#xe6;" horiz-adv-x="1181" d="M80 297q0 147 64.5 225t201.5 78q25 0 41 -2t30.5 -9t28 -19.5t29.5 -30.5q0 55 -4 89t-17.5 52t-38 25.5t-65.5 7.5q-45 0 -60.5 -14.5t-39.5 -39.5l-76 129q41 45 82 70t117 25q68 0 117 -21.5t83 -60.5q82 98 226 98q309 0 301 -455q0 -25 -1 -50t-1 -52h-449v-4 q0 -86 43 -131t109 -45q45 0 65.5 9t53.5 46l88 -106q-41 -59 -98.5 -88t-114.5 -33q-72 -6 -129.5 27.5t-96.5 86.5q-33 -66 -95 -89t-134 -23q-117 0 -188.5 81t-71.5 224zM250 301q0 -61 25.5 -99t89.5 -38q41 0 75.5 22.5t34.5 67.5v111q0 35 -25.5 58t-66.5 23 q-86 0 -109.5 -34.5t-23.5 -110.5zM649 510h281q-4 94 -32 158.5t-101 64.5q-41 0 -69 -17.5t-44 -47t-24.5 -70.5t-10.5 -88z" />
<glyph unicode="&#xe7;" horiz-adv-x="733" d="M51 444q0 96 26.5 178.5t75 141.5t114 92t145.5 33q78 0 138 -31t101 -80l-127 -108q-16 23 -40.5 35t-71.5 12q-88 0 -138.5 -76t-50.5 -199q0 -285 189 -284q76 0 125 53l139 -98q-104 -129 -264 -129q-84 0 -151.5 32.5t-114 93t-71 145.5t-24.5 189zM274 -283l25 82 q49 -12 98 -6q63 8 60 53q2 45 -60 48q-29 2 -80 -15v201h74v-107q150 6 150 -125q2 -143 -154 -145q-37 -2 -65 2t-48 12z" />
<glyph unicode="&#xe8;" d="M59 430q0 106 25 193.5t72 149t114.5 94t151.5 32.5q156 0 250 -116q92 -113 92 -329q0 -33 -1 -60q-1 -26 -1 -52h-531v-4q0 -41 17.5 -74t45.5 -55.5t61.5 -34.5t68.5 -12q45 0 79 12t58 43l113 -104q-49 -66 -113.5 -94.5t-142.5 -28.5q-180 2 -269.5 115.5 t-89.5 324.5zM231 510h363q-4 94 -51 158.5t-123 64.5q-82 0 -133.5 -64.5t-55.5 -158.5zM234 1118h114l103 -182h-60z" />
<glyph unicode="&#xe9;" d="M59 430q0 106 25 193.5t72 149t114.5 94t151.5 32.5q156 0 250 -116q92 -113 92 -329q0 -33 -1 -60q-1 -26 -1 -52h-531v-4q0 -41 17.5 -74t45.5 -55.5t61.5 -34.5t68.5 -12q45 0 79 12t58 43l113 -104q-49 -66 -113.5 -94.5t-142.5 -28.5q-180 2 -269.5 115.5 t-89.5 324.5zM231 510h363q-4 94 -51 158.5t-123 64.5q-82 0 -133.5 -64.5t-55.5 -158.5zM319 942l103 182h114l-157 -182h-60z" />
<glyph unicode="&#xea;" d="M59 430q0 106 25 193.5t72 149t114.5 94t151.5 32.5q156 0 250 -116q92 -113 92 -329q0 -33 -1 -60q-1 -26 -1 -52h-531v-4q0 -41 17.5 -74t45.5 -55.5t61.5 -34.5t68.5 -12q45 0 79 12t58 43l113 -104q-49 -66 -113.5 -94.5t-142.5 -28.5q-180 2 -269.5 115.5 t-89.5 324.5zM231 510h363q-4 94 -51 158.5t-123 64.5q-82 0 -133.5 -64.5t-55.5 -158.5zM209 938l151 180h113l155 -180h-104l-107 127l-106 -127h-102z" />
<glyph unicode="&#xeb;" d="M59 430q0 106 25 193.5t72 149t114.5 94t151.5 32.5q156 0 250 -116q92 -113 92 -329q0 -33 -1 -60q-1 -26 -1 -52h-531v-4q0 -41 17.5 -74t45.5 -55.5t61.5 -34.5t68.5 -12q45 0 79 12t58 43l113 -104q-49 -66 -113.5 -94.5t-142.5 -28.5q-180 2 -269.5 115.5 t-89.5 324.5zM231 510h363q-4 94 -51 158.5t-123 64.5q-82 0 -133.5 -64.5t-55.5 -158.5zM187 1038q0 41 25.5 67.5t66.5 26.5q39 0 66.5 -26.5t27.5 -67.5q0 -39 -27.5 -66.5t-66.5 -27.5q-41 0 -66.5 27.5t-25.5 66.5zM469 1038q0 41 28 67.5t64 26.5q41 0 67 -26.5 t26 -67.5q0 -39 -26 -66.5t-67 -27.5q-37 0 -64.5 27.5t-27.5 66.5z" />
<glyph unicode="&#xec;" horiz-adv-x="366" d="M96 0v874h168v-874h-168zM27 1118h114l103 -182h-60z" />
<glyph unicode="&#xed;" horiz-adv-x="366" d="M96 0v874h168v-874h-168zM116 942l103 182h114l-157 -182h-60z" />
<glyph unicode="&#xee;" horiz-adv-x="366" d="M96 0v874h168v-874h-168zM-20 938l151 180h113l155 -180h-104l-107 127l-106 -127h-102z" />
<glyph unicode="&#xef;" horiz-adv-x="366" d="M96 0v874h168v-874h-168zM-53 1038q0 41 25.5 67.5t66.5 26.5q39 0 66.5 -26.5t27.5 -67.5q0 -39 -27.5 -66.5t-66.5 -27.5q-41 0 -66.5 27.5t-25.5 66.5zM229 1038q0 41 28 67.5t64 26.5q41 0 67 -26.5t26 -67.5q0 -39 -26 -66.5t-67 -27.5q-37 0 -64.5 27.5t-27.5 66.5 z" />
<glyph unicode="&#xf0;" horiz-adv-x="813" d="M63 377q0 80 21.5 147.5t61.5 114.5t94.5 73.5t119.5 26.5q55 0 117 -34.5t92 -88.5q-14 86 -44.5 150.5t-73.5 112.5l-93 -107l-127 111l74 86q-31 8 -65 12l26 160q41 -2 79 -13.5t73 -29.5l80 92l127 -111l-74 -86q86 -98 136 -244.5t50 -312.5q0 -211 -88 -328.5 t-237 -117.5q-160 0 -254.5 97t-94.5 290zM215 365q0 -98 52 -152.5t134 -54.5q80 0 125 55t45 154q0 98 -48 155.5t-130 57.5q-80 0 -129 -58.5t-49 -156.5z" />
<glyph unicode="&#xf1;" horiz-adv-x="833" d="M96 0v874h168v-108q31 59 87.5 88t131.5 29q117 0 187.5 -83t70.5 -225v-575h-168v543q0 86 -38.5 130t-108.5 44t-116 -44t-46 -130v-543h-168zM164 989q57 106 149 102q12 0 37 -9t52.5 -20t54 -21.5t41.5 -12.5q68 -4 96 59l49 -55q-6 -25 -22.5 -42t-37 -27.5 t-42 -14.5t-37.5 -4q-12 0 -38 9t-52.5 21.5t-50 21.5t-33.5 9q-53 4 -107 -67z" />
<glyph unicode="&#xf2;" d="M66 436q0 94 25.5 177t71.5 143.5t110.5 95.5t142.5 35q80 0 144.5 -34t110.5 -94.5t71.5 -143.5t25.5 -179q0 -203 -92 -324.5t-260 -121.5q-166 0 -258 117.5t-92 328.5zM233 434q0 -272 185 -272q182 0 182 272q0 281 -184 281q-88 0 -135.5 -78t-47.5 -203zM250 1118 h114l103 -182h-60z" />
<glyph unicode="&#xf3;" d="M66 436q0 94 25.5 177t71.5 143.5t110.5 95.5t142.5 35q80 0 144.5 -34t110.5 -94.5t71.5 -143.5t25.5 -179q0 -203 -92 -324.5t-260 -121.5q-166 0 -258 117.5t-92 328.5zM233 434q0 -272 185 -272q182 0 182 272q0 281 -184 281q-88 0 -135.5 -78t-47.5 -203zM305 942 l103 182h114l-157 -182h-60z" />
<glyph unicode="&#xf4;" d="M66 436q0 94 25.5 177t71.5 143.5t110.5 95.5t142.5 35q80 0 144.5 -34t110.5 -94.5t71.5 -143.5t25.5 -179q0 -203 -92 -324.5t-260 -121.5q-166 0 -258 117.5t-92 328.5zM233 434q0 -272 185 -272q182 0 182 272q0 281 -184 281q-88 0 -135.5 -78t-47.5 -203zM209 938 l151 180h113l155 -180h-104l-107 127l-106 -127h-102z" />
<glyph unicode="&#xf5;" d="M66 436q0 94 25.5 177t71.5 143.5t110.5 95.5t142.5 35q80 0 144.5 -34t110.5 -94.5t71.5 -143.5t25.5 -179q0 -203 -92 -324.5t-260 -121.5q-166 0 -258 117.5t-92 328.5zM233 434q0 -272 185 -272q182 0 182 272q0 281 -184 281q-88 0 -135.5 -78t-47.5 -203zM160 989 q57 106 149 102q12 0 37 -9t52.5 -20t54 -21.5t41.5 -12.5q68 -4 96 59l49 -55q-6 -25 -22.5 -42t-37 -27.5t-42 -14.5t-37.5 -4q-12 0 -38 9t-52.5 21.5t-50 21.5t-33.5 9q-53 4 -107 -67z" />
<glyph unicode="&#xf6;" d="M66 436q0 94 25.5 177t71.5 143.5t110.5 95.5t142.5 35q80 0 144.5 -34t110.5 -94.5t71.5 -143.5t25.5 -179q0 -203 -92 -324.5t-260 -121.5q-166 0 -258 117.5t-92 328.5zM233 434q0 -272 185 -272q182 0 182 272q0 281 -184 281q-88 0 -135.5 -78t-47.5 -203zM183 1038 q0 41 25.5 67.5t66.5 26.5q39 0 66.5 -26.5t27.5 -67.5q0 -39 -27.5 -66.5t-66.5 -27.5q-41 0 -66.5 27.5t-25.5 66.5zM465 1038q0 41 28 67.5t64 26.5q41 0 67 -26.5t26 -67.5q0 -39 -26 -66.5t-67 -27.5q-37 0 -64.5 27.5t-27.5 66.5z" />
<glyph unicode="&#xf7;" horiz-adv-x="888" d="M41 430v156h803v-156h-803zM330 96q0 61 36.5 103.5t88.5 42.5q49 0 87 -42t38 -104q0 -63 -37 -105t-88 -42q-53 0 -89 42t-36 105zM330 920q0 66 34.5 110.5t90.5 44.5q53 0 89 -45t36 -110q0 -63 -37 -109.5t-88 -46.5q-53 0 -89 46.5t-36 109.5z" />
<glyph unicode="&#xf8;" d="M66 436q0 94 25.5 177t71.5 143.5t110.5 95.5t142.5 35q49 0 93 -14.5t83 -38.5l20 34h117l-63 -104q49 -61 75.5 -145t26.5 -183q0 -203 -92 -324.5t-260 -121.5q-102 0 -180 47l-37 -64h-117l78 133q-94 113 -94 330zM233 434q0 -100 25 -164l250 420q-41 25 -92 25 q-88 0 -135.5 -78t-47.5 -203zM326 186q37 -25 92 -24q182 0 182 272q0 53 -7 95t-20 77z" />
<glyph unicode="&#xf9;" horiz-adv-x="837" d="M92 297v577h168v-520q0 -86 37 -139t109 -53q70 0 117.5 53t47.5 139v520h168v-874h-168v106q-33 -61 -92 -88.5t-129 -27.5q-117 0 -187.5 83t-70.5 224zM246 1118h114l103 -182h-60z" />
<glyph unicode="&#xfa;" horiz-adv-x="837" d="M92 297v577h168v-520q0 -86 37 -139t109 -53q70 0 117.5 53t47.5 139v520h168v-874h-168v106q-33 -61 -92 -88.5t-129 -27.5q-117 0 -187.5 83t-70.5 224zM338 942l103 182h114l-157 -182h-60z" />
<glyph unicode="&#xfb;" horiz-adv-x="837" d="M92 297v577h168v-520q0 -86 37 -139t109 -53q70 0 117.5 53t47.5 139v520h168v-874h-168v106q-33 -61 -92 -88.5t-129 -27.5q-117 0 -187.5 83t-70.5 224zM189 938l151 180h113l155 -180h-104l-107 127l-106 -127h-102z" />
<glyph unicode="&#xfc;" horiz-adv-x="837" d="M92 297v577h168v-520q0 -86 37 -139t109 -53q70 0 117.5 53t47.5 139v520h168v-874h-168v106q-33 -61 -92 -88.5t-129 -27.5q-117 0 -187.5 83t-70.5 224zM187 1038q0 41 25.5 67.5t66.5 26.5q39 0 66.5 -26.5t27.5 -67.5q0 -39 -27.5 -66.5t-66.5 -27.5 q-41 0 -66.5 27.5t-25.5 66.5zM469 1038q0 41 28 67.5t64 26.5q41 0 67 -26.5t26 -67.5q0 -39 -26 -66.5t-67 -27.5q-37 0 -64.5 27.5t-27.5 66.5z" />
<glyph unicode="&#xfd;" horiz-adv-x="804" d="M66 874h178l168 -653l163 653h179l-357 -1243h-176l105 365zM325 942l103 182h114l-157 -182h-60z" />
<glyph unicode="&#xfe;" horiz-adv-x="813" d="M96 -293v1475h168v-490q96 158 203 158q68 0 124 -32t98 -87t64.5 -128t22.5 -154q0 -90 -21.5 -170t-60.5 -139.5t-93 -94.5t-118 -35q-129 0 -219 96v-399h-168zM264 422q0 -45 14.5 -88t39 -77t57.5 -54.5t71 -20.5q39 0 72 20.5t57.5 54.5t39 77t14.5 88t-14.5 89 t-39 78t-57.5 54.5t-72 20.5t-71.5 -20.5t-57 -54.5t-39 -78t-14.5 -89z" />
<glyph unicode="&#xff;" horiz-adv-x="872" d="M55 872h205l189 -608l196 608h176l-401 -1241h-189l119 357zM193 1106q0 47 27.5 80t66.5 33q41 0 67.5 -33t26.5 -80t-26.5 -81t-67.5 -34q-39 0 -66.5 34t-27.5 81zM520 1106q0 47 26.5 80t61.5 33q41 0 67.5 -33t26.5 -80t-26.5 -81t-67.5 -34q-35 0 -61.5 34 t-26.5 81z" />
<glyph unicode="&#x131;" horiz-adv-x="366" d="M96 0v874h168v-874h-168z" />
<glyph unicode="&#x152;" horiz-adv-x="1298" d="M82 567q0 272 108.5 424t307.5 150q152 0 250 -86v80h460v-168h-293v-301h232v-168h-232v-330h293v-168h-460v76q-102 -86 -250 -84q-199 0 -306.5 148t-109.5 427zM250 567q0 -211 62.5 -308t185.5 -97t185 97t62 308q0 205 -56 306.5t-191 101.5q-129 0 -188.5 -101.5 t-59.5 -306.5z" />
<glyph unicode="&#x153;" horiz-adv-x="1247" d="M86 436q0 94 18.5 177t57.5 143.5t97 95.5t136 35q143 0 223 -111q76 123 242 123q309 0 301 -455q0 -25 -1 -50t-1 -52h-448v-4q0 -86 43 -131t108 -45q23 0 36 3t22.5 9t17.5 16.5t20 26.5l113 -104q-49 -66 -93 -94.5t-122 -28.5q-164 4 -235 102q-80 -102 -226 -102 q-166 0 -237.5 117.5t-71.5 328.5zM254 434q0 -68 6 -119t21.5 -84.5t43 -51t72.5 -17.5q90 0 116 66.5t26 201.5v4q0 141 -26 211t-118 70q-86 0 -113.5 -78t-27.5 -203zM711 510h280q-4 94 -31.5 158.5t-101.5 64.5q-41 0 -68.5 -17.5t-44 -47t-24.5 -70.5t-10 -88z" />
<glyph unicode="&#x178;" horiz-adv-x="966" d="M55 1135h191l239 -519l238 519h188l-331 -701v-434h-191v430zM246 1290q0 41 25.5 67.5t66.5 26.5q39 0 66.5 -26.5t27.5 -67.5q0 -39 -27.5 -66.5t-66.5 -27.5q-41 0 -66.5 27.5t-25.5 66.5zM528 1290q0 41 28 67.5t64 26.5q41 0 67 -26.5t26 -67.5q0 -39 -26 -66.5 t-67 -27.5q-37 0 -64.5 27.5t-27.5 66.5z" />
<glyph unicode="&#x2c6;" horiz-adv-x="552" d="M66 1190l151 180h113l155 -180h-104l-107 127l-106 -127h-102z" />
<glyph unicode="&#x2dc;" horiz-adv-x="641" d="M80 1241q57 106 149 102q12 0 37 -9t52.5 -20t54 -21.5t41.5 -12.5q68 -4 96 59l49 -55q-6 -25 -22.5 -42t-37 -27.5t-42 -14.5t-37.5 -4q-12 0 -38 9t-52.5 21.5t-50 21.5t-33.5 9q-53 4 -107 -67z" />
<glyph unicode="&#x2000;" horiz-adv-x="718" />
<glyph unicode="&#x2001;" horiz-adv-x="1439" />
<glyph unicode="&#x2002;" horiz-adv-x="718" />
<glyph unicode="&#x2003;" horiz-adv-x="1439" />
<glyph unicode="&#x2004;" horiz-adv-x="479" />
<glyph unicode="&#x2005;" horiz-adv-x="358" />
<glyph unicode="&#x2006;" horiz-adv-x="239" />
<glyph unicode="&#x2007;" horiz-adv-x="239" />
<glyph unicode="&#x2008;" horiz-adv-x="178" />
<glyph unicode="&#x2009;" horiz-adv-x="286" />
<glyph unicode="&#x200a;" horiz-adv-x="79" />
<glyph unicode="&#x2010;" horiz-adv-x="491" d="M96 528v168h295v-168h-295z" />
<glyph unicode="&#x2011;" horiz-adv-x="491" d="M96 528v168h295v-168h-295z" />
<glyph unicode="&#x2012;" horiz-adv-x="491" d="M96 528v168h295v-168h-295z" />
<glyph unicode="&#x2013;" horiz-adv-x="718" d="M96 528v168h541v-168h-541z" />
<glyph unicode="&#x2014;" horiz-adv-x="1220" d="M96 528v168h1053v-168h-1053z" />
<glyph unicode="&#x2018;" horiz-adv-x="325" d="M74 1006q0 236 145 251v-30q-37 -8 -56.5 -29.5t-23.5 -79.5l31 2q33 0 60.5 -35.5t27.5 -78.5q0 -47 -28.5 -81t-65.5 -34q-41 0 -65.5 34t-24.5 81z" />
<glyph unicode="&#x2019;" horiz-adv-x="327" d="M66 1067q0 49 27.5 82t70.5 33q37 0 63.5 -33t26.5 -82q0 -104 -37 -173t-111 -79v31q39 8 59.5 29.5t24.5 78.5h-26q-43 0 -70.5 32t-27.5 81z" />
<glyph unicode="&#x201a;" horiz-adv-x="288" d="M61 -139l74 491h113l-137 -491h-50z" />
<glyph unicode="&#x201c;" horiz-adv-x="638" d="M86 1006q0 104 38 172.5t112 78.5v-30q-37 -8 -57.5 -29.5t-24.5 -79.5l32 2q33 0 60.5 -33.5t27.5 -80.5t-27.5 -81t-64.5 -34q-43 0 -69.5 34t-26.5 81zM367 1006q0 104 38.5 172.5t110.5 78.5v-30q-39 -8 -59.5 -29.5t-24.5 -79.5l33 2q35 0 62.5 -35.5t27.5 -78.5 q0 -47 -27.5 -81t-68.5 -34q-37 0 -64.5 34t-27.5 81z" />
<glyph unicode="&#x201d;" horiz-adv-x="636" d="M82 1067q0 49 29.5 82t68.5 33q41 0 65.5 -33t24.5 -82q0 -104 -36.5 -173t-108.5 -79v31q37 8 56.5 29.5t23.5 78.5h-25q-39 0 -68.5 32t-29.5 81zM365 1067q0 49 27.5 82t64.5 33q43 0 68.5 -33t25.5 -82q0 -104 -38 -173t-110 -79l3 31q35 8 54 29.5t23 78.5h-26 q-37 0 -64.5 32t-27.5 81z" />
<glyph unicode="&#x201e;" horiz-adv-x="548" d="M312 115q0 47 25.5 80.5t66.5 33.5q35 0 63.5 -33.5t28.5 -80.5t-9.5 -91t-27.5 -79t-48 -57.5t-69 -26.5v24q41 10 60.5 36t23.5 81l-26 -2q-41 0 -64.5 34t-23.5 81zM68 115q0 47 25.5 80.5t66.5 33.5q35 0 63.5 -33.5t28.5 -80.5t-9.5 -91t-27.5 -79t-48 -57.5 t-69 -26.5v24q41 10 60.5 36t23.5 81l-26 -2q-41 0 -64.5 34t-23.5 81z" />
<glyph unicode="&#x2022;" horiz-adv-x="1085" d="M283 653q0 51 19.5 95.5t52 77t76.5 52t95 19.5t95.5 -19.5t77 -52t52 -76.5t19.5 -96q0 -51 -19.5 -95t-52 -76.5t-76.5 -52t-96 -19.5q-51 0 -95 19.5t-76.5 52t-52 76.5t-19.5 95z" />
<glyph unicode="&#x2026;" horiz-adv-x="1118" d="M92 115q0 47 24.5 80.5t65.5 33.5q35 0 63.5 -33.5t28.5 -80.5t-28.5 -81t-63.5 -34q-41 0 -65.5 34t-24.5 81zM465 115q0 47 25.5 80.5t66.5 33.5q39 0 66.5 -33.5t27.5 -80.5t-27.5 -81t-66.5 -34q-41 0 -66.5 34t-25.5 81zM840 115q0 47 25.5 80.5t66.5 33.5 q37 0 65.5 -33.5t28.5 -80.5t-28.5 -81t-65.5 -34q-41 0 -66.5 34t-25.5 81z" />
<glyph unicode="&#x202f;" horiz-adv-x="286" />
<glyph unicode="&#x2039;" horiz-adv-x="471" d="M92 559v113l303 155v-104l-229 -107l229 -106v-102z" />
<glyph unicode="&#x203a;" horiz-adv-x="471" d="M92 410v104l230 107l-230 106v102l303 -151v-113z" />
<glyph unicode="&#x205f;" horiz-adv-x="358" />
<glyph unicode="&#x20ac;" horiz-adv-x="917" d="M14 379v129h62v127l-62 4v123h88q45 182 158 282q106 100 275 101q195 0 307 -113l-99 -172q-41 45 -86 68q-53 29 -122 28q-82 0 -148 -47q-63 -47 -96 -147h395l-72 -127h-358q-2 -4 -2 -25v-102h289l-74 -129h-174q37 -109 100 -154q63 -49 146 -49q51 0 118 29 q37 18 66 41l121 -140q-121 -121 -311 -120q-158 0 -273 102q-113 100 -160 291h-88z" />
<glyph unicode="&#x2122;" horiz-adv-x="1148" d="M88 991v111h408v-111h-142v-456h-121v456h-145zM547 537v567h137l109 -293l106 293h133v-567h-114v311l-123 -316l-136 328v-323h-112z" />
<glyph unicode="&#xe000;" horiz-adv-x="875" d="M0 875h875v-875h-875v875z" />
<glyph unicode="&#xfb01;" horiz-adv-x="880" d="M604 1077q0 49 24.5 82t69.5 33q39 0 66.5 -33t27.5 -82q0 -47 -28.5 -79.5t-65.5 -32.5q-43 0 -68.5 32.5t-25.5 79.5zM614 0v874h168v-874h-168zM57 707v167h93q0 147 57 229.5t176 82.5q39 0 82 -6v-154q-44 7 -75 7h-7q-33 -1 -52.5 -17.5t-27.5 -50t-8 -91.5h172 v-167h-164v-707h-153v707h-93z" />
<glyph unicode="&#xfb02;" horiz-adv-x="880" d="M610 0v1063l168 106v-1169h-168zM57 707v167h93q0 147 57 229.5t176 82.5q39 0 82 -6v-154q-44 7 -75 7h-7q-33 -1 -52.5 -17.5t-27.5 -50t-8 -91.5h172v-167h-164v-707h-153v707h-93z" />
<glyph unicode="&#xfb03;" horiz-adv-x="1398" d="M1122 1077q0 49 24.5 82t69.5 33q39 0 66.5 -33t27.5 -82q0 -47 -28.5 -79.5t-65.5 -32.5q-43 0 -68.5 32.5t-25.5 79.5zM1132 0v874h168v-874h-168zM575 707v167h93q0 147 57 229.5t176 82.5q39 0 82 -6v-154q-44 7 -75 7h-7q-33 -1 -52.5 -17.5t-27.5 -50t-8 -91.5h172 v-167h-164v-707h-153v707h-93zM57 707v167h93q0 147 57 229.5t176 82.5q39 0 82 -6v-154q-44 7 -75 7h-7q-33 -1 -52.5 -17.5t-27.5 -50t-8 -91.5h172v-167h-164v-707h-153v707h-93z" />
<glyph unicode="&#xfb04;" horiz-adv-x="1398" d="M1128 0v1063l168 106v-1169h-168zM575 707v167h93q0 147 57 229.5t176 82.5q39 0 82 -6v-154q-44 7 -75 7h-7q-33 -1 -52.5 -17.5t-27.5 -50t-8 -91.5h172v-167h-164v-707h-153v707h-93zM57 707v167h93q0 147 57 229.5t176 82.5q39 0 82 -6v-154q-44 7 -75 7h-7 q-33 -1 -52.5 -17.5t-27.5 -50t-8 -91.5h172v-167h-164v-707h-153v707h-93z" />
<glyph horiz-adv-x="468" d="M111 1309q0 55 34.5 93t87.5 38t89 -39t36 -92t-35.5 -88t-89.5 -35q-53 0 -87.5 35t-34.5 88zM156 1313q0 -37 23.5 -60.5t56.5 -23.5q35 0 59 23.5t24 60.5q0 35 -25.5 59.5t-57.5 24.5q-31 0 -55.5 -24.5t-24.5 -59.5z" />
</font>
</defs>
</svg>
