<?xml version="1.0" standalone="no"?>
<!DOCTYPE svg PUBLIC "-//W3C//DTD SVG 1.1//EN" "http://www.w3.org/Graphics/SVG/1.1/DTD/svg11.dtd" >
<svg xmlns="http://www.w3.org/2000/svg">
<metadata>
This is a custom SVG webfont generated by Font Squirrel.
Copyright   : Copyright c Ray Larabie 2000 All rights reserved Freeware Revised 2003 wwwlarabiefontscom
Designer    : Ray Larabie
Foundry     : Ray Larabie
Foundry URL : httpwwwtypodermiccom
</metadata>
<defs>
<font id="BlueHighwayBold" horiz-adv-x="870" >
<font-face units-per-em="2048" ascent="1638" descent="-410" />
<missing-glyph horiz-adv-x="475" />
<glyph unicode=" "  horiz-adv-x="475" />
<glyph unicode="&#x09;" horiz-adv-x="475" />
<glyph unicode="&#xa0;" horiz-adv-x="475" />
<glyph unicode="!" horiz-adv-x="405" d="M90 115q0 57 31 96t82 39q43 0 77.5 -39t34.5 -96t-34.5 -96t-77.5 -39q-51 0 -82 39t-31 96zM96 662v493h209v-491l-43 -340h-112z" />
<glyph unicode="&#x22;" horiz-adv-x="675" d="M88 1212h182l-34 -532h-119zM397 1212h189l-35 -532h-117z" />
<glyph unicode="#" horiz-adv-x="1052" d="M57 264v170h211l54 273h-189v170h225l52 278h145l-53 -278h182l59 278h140l-56 -278h168v-170h-202l-58 -273h187v-170h-217l-62 -284h-137l55 284h-184l-60 -284h-139l55 284h-176zM410 432h184l59 277h-188z" />
<glyph unicode="$" horiz-adv-x="872" d="M66 162l67 196q92 -57 197 -75v237q-264 82 -264 289q0 180 264 240v106h209v-98q66 -10 122 -29.5t99 -48.5l-60 -201q-33 20 -72.5 35.5t-88.5 30.5v-150q266 -68 266 -295q0 -258 -266 -313v-106h-209v102q-74 10 -138.5 29.5t-125.5 50.5zM289 782q0 -27 41 -45v109 q-41 -29 -41 -64zM539 297q53 37 53 102q0 43 -53 72v-174z" />
<glyph unicode="%" horiz-adv-x="1032" d="M72 932q0 47 14 88t40 70.5t59.5 46t72.5 16.5t73 -16.5t59.5 -46t39.5 -70.5t14 -88q0 -45 -15 -85t-41 -69.5t-59.5 -47t-70.5 -17.5q-39 0 -72.5 16t-59.5 45t-40 70t-14 88zM178 936q0 -41 25.5 -68.5t54.5 -27.5q33 0 54.5 27.5t21.5 68.5t-21.5 70.5t-54.5 29.5 q-29 0 -54.5 -29.5t-25.5 -70.5zM229 -18l418 1171h141l-413 -1171h-146zM600 203q0 45 13.5 85t38 69.5t57 47t71.5 17.5q37 0 70 -17.5t58.5 -47t40 -69.5t14.5 -85q0 -96 -52.5 -158.5t-130.5 -62.5t-129 61.5t-51 159.5zM707 201q0 -41 23.5 -69t53.5 -28q33 0 54.5 28 t21.5 69t-21.5 70.5t-54.5 29.5q-31 0 -54 -29.5t-23 -70.5z" />
<glyph unicode="&#x26;" horiz-adv-x="1193" d="M82 315q0 57 11 98.5t31.5 73t49.5 58t66 57.5l18 16q-61 68 -95 138.5t-34 146.5q0 80 34 132t84 84t111.5 45.5t116.5 13.5q307 0 316 -273l-224 -80q-14 150 -106 150q-96 0 -96 -105q0 -61 174 -235q6 -8 56 -58.5t148 -144.5q16 41 28.5 96.5t16.5 126.5h226v-77 q0 -92 -23.5 -172t-64.5 -152l239 -272h-303l-94 104q-158 -129 -307 -129q-84 0 -153.5 25.5t-120 71.5t-78 112.5t-27.5 148.5zM319 356q0 -35 14.5 -65.5t36 -55t49 -39t56.5 -14.5q84 0 139 80l-219 219l-33 -26q-43 -50 -43 -99z" />
<glyph unicode="'" horiz-adv-x="366" d="M66 1067q0 59 33.5 97t84.5 38q45 0 78 -38t33 -97q0 -244 -189 -291v80q61 6 74 78q-59 6 -86.5 43t-27.5 90z" />
<glyph unicode="(" horiz-adv-x="518" d="M61 444q0 391 213 758h201q-246 -336 -246 -758q0 -375 242 -757h-197q-213 366 -213 757z" />
<glyph unicode=")" horiz-adv-x="516" d="M41 1202h199q111 -186 162 -369.5t51 -388.5t-51.5 -388t-161.5 -369h-197q66 100 112 191t75.5 182.5t43 185.5t13.5 198q0 217 -61.5 397.5t-184.5 360.5z" />
<glyph unicode="*" horiz-adv-x="983" d="M45 502l324 225l-320 227l82 150l279 -236v383h149v-383l291 232l86 -148l-328 -223l330 -227l-86 -146l-287 238v-389h-147v381l-287 -230z" />
<glyph unicode="+" horiz-adv-x="581" d="M53 508v209h150v182h178v-182h145v-209h-145v-180h-178v180h-150z" />
<glyph unicode="," horiz-adv-x="364" d="M68 115q0 57 30.5 96t81.5 39q43 0 78 -39t35 -96q0 -51 -11.5 -99.5t-35 -86.5t-60 -62.5t-88.5 -28.5v64q37 10 56.5 26.5t25.5 51.5h-4q-51 0 -79.5 39t-28.5 96z" />
<glyph unicode="-" horiz-adv-x="532" d="M96 508v209h336v-209h-336z" />
<glyph unicode="." horiz-adv-x="380" d="M78 115q0 57 29.5 96t80.5 39q43 0 78 -39t35 -96t-35 -96t-78 -39q-51 0 -80.5 39t-29.5 96z" />
<glyph unicode="/" horiz-adv-x="677" d="M31 -102l442 1372h174l-444 -1372h-172z" />
<glyph unicode="0" horiz-adv-x="1028" d="M78 567q0 287 110.5 440.5t321.5 153.5h4q217 0 325.5 -153.5t108.5 -440.5t-106.5 -441.5t-323.5 -154.5h-4q-205 0 -319.5 153.5t-116.5 442.5zM287 567q0 -199 58 -292t169 -93q113 0 170 93.5t57 291.5q0 199 -51 293t-176 94q-117 0 -172 -94t-55 -293z" />
<glyph unicode="1" horiz-adv-x="460" d="M49 854v199q125 2 131 104h180v-1177h-208v874h-103z" />
<glyph unicode="2" horiz-adv-x="874" d="M84 -20v110q0 104 18.5 180t54.5 134.5t85 103.5t110 90q33 25 73 42t73.5 38.5t56.5 54.5t23 88q0 121 -134 121q-63 0 -114 -26.5t-103 -108.5l-141 184q68 92 157 132t212 40q72 0 133 -18.5t105 -59.5t69.5 -104t25.5 -152v-4q0 -94 -32.5 -158.5t-83.5 -111.5 t-109.5 -84t-112 -76t-90 -88t-43.5 -119h471v-208h-704z" />
<glyph unicode="3" horiz-adv-x="833" d="M63 162l179 127q51 -104 161 -105q143 0 146 150q-2 174 -156 174h-88v209h88q100 0 101 131q-2 98 -99 108h-6q-74 0 -98 -75l-178 71q76 211 276 211h12q285 0 287 -303q0 -152 -102 -223q86 -47 130 -121t44 -180q0 -186 -89 -273.5t-270 -89.5q-236 1 -338 189z" />
<glyph unicode="4" horiz-adv-x="903" d="M43 270v224l440 661h230v-676h123v-209h-123v-293h-209v293h-461zM266 479h238v363z" />
<glyph unicode="5" horiz-adv-x="901" d="M76 59l110 209q68 -51 124.5 -70.5t107.5 -19.5q88 0 145.5 48t57.5 147q0 41 -14.5 76.5t-37 63.5t-52.5 43t-62 15q-41 0 -82 -19.5t-82 -64.5l-195 82l13 127q6 63 12 133t12 150t12 176h611v-209h-428l-17 -201q35 23 73 31t77 8q174 0 268 -107.5t94 -305.5 q0 -100 -29.5 -176t-84 -127.5t-128 -77t-159.5 -25.5q-100 0 -184 20.5t-162 73.5z" />
<glyph unicode="6" horiz-adv-x="854" d="M72 436q0 143 37.5 272.5t106.5 228.5t162 159.5t204 64.5l32 -198q-104 -10 -189 -76t-126 -195q39 31 84 49.5t86 18.5q70 0 128 -27.5t100 -79t65.5 -121t23.5 -155.5q0 -205 -97 -306.5t-271 -101.5q-160 0 -253 125t-93 342zM279 367q0 -188 149 -189q72 0 119 47 t47 140q0 92 -43 143t-115 51t-114.5 -50t-42.5 -142z" />
<glyph unicode="7" horiz-adv-x="837" d="M68 946v209h718v-225q-74 -66 -136 -168.5t-106 -228t-69.5 -268t-28.5 -285.5h-223q8 143 30.5 281t59.5 262t89.5 231.5t119.5 191.5h-454z" />
<glyph unicode="8" horiz-adv-x="874" d="M74 344q0 106 44 191.5t109 121.5q-43 43 -60 97.5t-17 115.5q0 135 75.5 214t206.5 79q141 0 218 -70.5t77 -224.5q0 -63 -18.5 -117.5t-71.5 -99.5q39 -16 69.5 -48t51 -73t31 -89t10.5 -97q0 -180 -99.5 -275.5t-265.5 -95.5t-263 95.5t-97 275.5zM285 348 q0 -78 43 -121t108 -43q70 0 112 41t42 123q0 172 -154 172q-66 0 -108.5 -42t-42.5 -130zM336 850q0 -51 27.5 -79t72.5 -28t70.5 30t25.5 77q0 113 -96 113q-100 0 -100 -113z" />
<glyph unicode="9" horiz-adv-x="858" d="M66 752q0 205 99 308t273 103q166 0 256 -127t90 -344q0 -143 -37.5 -272t-106.5 -228.5t-163 -160t-207 -64.5l-24 199q98 6 183 73.5t124 192.5q-35 -29 -80 -46t-88 -17q-72 0 -130 27.5t-100 78.5t-65.5 121t-23.5 156zM264 764q0 -92 41 -143.5t111 -51.5 q72 0 114.5 50.5t42.5 142.5t-38.5 141t-110.5 49t-116 -48t-44 -140z" />
<glyph unicode=":" horiz-adv-x="399" d="M84 115q0 57 33 96t84 39q45 0 77.5 -39t32.5 -96t-32.5 -96t-77.5 -39q-51 0 -84 39t-33 96zM84 731q0 57 33 95t84 38q45 0 77.5 -38t32.5 -95q0 -59 -32.5 -97t-77.5 -38q-51 0 -84 38t-33 97z" />
<glyph unicode=";" horiz-adv-x="370" d="M63 115q0 57 31 96t84 39q45 0 80 -39t35 -96q0 -117 -49 -191t-148 -88v66q76 25 88 80l-10 -2q-51 0 -81 39t-30 96zM63 731q0 57 31 95t84 38q45 0 80 -38t35 -95q0 -59 -34 -97t-81 -38q-53 0 -84 38t-31 97z" />
<glyph unicode="&#x3c;" horiz-adv-x="952" d="M37 616l461 426q14 20 41 21q43 0 43 -47l-35 -215h354v-369h-354l35 -213q0 -47 -43 -47q-27 0 -41 21z" />
<glyph unicode="=" horiz-adv-x="632" d="M35 338v211h620v-211h-620zM35 594v209h620v-209h-620z" />
<glyph unicode="&#x3e;" horiz-adv-x="952" d="M51 432v369h350l-32 211q0 51 41 51q23 0 41 -19l464 -428l-464 -426q-18 -18 -41 -18q-41 0 -41 51l32 209h-350z" />
<glyph unicode="?" horiz-adv-x="757" d="M55 1020q59 80 141.5 112.5t192.5 32.5q141 0 227 -78.5t86 -232.5q0 -55 -14 -100t-38.5 -82t-56.5 -70t-67 -63q-29 -27 -43 -51.5t-22 -52t-9 -60.5t-1 -74h-211v35q0 111 35.5 196.5t101.5 145.5q33 29 53.5 49.5t32.5 38.5t16 38.5t4 49.5q0 96 -98 96 q-63 0 -118.5 -22.5t-102.5 -81.5zM229 115q0 57 35 96t82 39q51 0 82 -39t31 -96t-31 -96t-82 -39q-47 0 -82 39t-35 96z" />
<glyph unicode="@" horiz-adv-x="1028" d="M80 526q0 125 36 222.5t96 164t141 101.5t173 35q217 0 322.5 -128t105.5 -376v-23q0 -41 -3 -95t-21.5 -105.5t-57 -86t-108.5 -34.5q-49 0 -86 16t-57 57q-31 -23 -68 -29.5t-74 -6.5q-61 0 -107 48t-46 140q0 190 180 190q20 0 46 -5t48 -17q-4 45 -26.5 63.5 t-61.5 18.5q-18 0 -33.5 -8.5t-38.5 -44.5l-67 106q33 31 69.5 48.5t83.5 17.5q82 0 132.5 -46.5t50.5 -144.5v-227q0 -70 57 -70q31 0 48 15.5t26.5 38t11.5 51t2 55.5v76q0 211 -83 307t-245 96q-72 0 -135 -28.5t-110.5 -82t-74 -131t-26.5 -178.5q0 -205 77 -321.5 t230 -116.5v-102q-109 0 -186.5 44t-126.5 117.5t-71.5 171.5t-22.5 207zM440 426q0 -70 76 -70q8 0 21.5 3t25.5 9.5t21.5 13.5t9.5 17v82q0 2 -10.5 6.5t-22.5 7.5t-24.5 5t-14.5 2q-82 0 -82 -76z" />
<glyph unicode="A" horiz-adv-x="964" d="M2 -20l346 1175h268l347 -1175h-226l-59 206h-391l-58 -206h-227zM350 420h266l-137 463z" />
<glyph unicode="B" horiz-adv-x="956" d="M96 -20v1175h385q63 0 122 -21.5t102 -62.5t68.5 -101.5t25.5 -138.5q0 -68 -21.5 -118.5t-60.5 -87.5q66 -27 116 -95.5t50 -185.5q0 -174 -101.5 -269t-294.5 -95h-391zM305 188h215q59 0 97 39t38 109t-36.5 105.5t-94.5 35.5h-219v-289zM305 686h180q43 0 75 40 t32 93t-31 90t-76 37h-180v-260z" />
<glyph unicode="C" horiz-adv-x="1028" d="M76 567q0 129 32.5 238.5t95 189.5t151.5 125t200 45q272 0 406 -231l-189 -119q-47 63 -99 92t-118 29q-123 0 -191.5 -97.5t-68.5 -271.5q0 -80 20.5 -147.5t55.5 -116.5t84 -77.5t106 -28.5q55 0 114.5 30.5t100.5 75.5l174 -119q-145 -219 -395 -219 q-104 0 -192.5 45t-152 126t-99 191.5t-35.5 239.5z" />
<glyph unicode="D" horiz-adv-x="1058" d="M96 -20v1175h338q121 0 222.5 -44t174 -122t113.5 -185.5t41 -232.5q0 -139 -42 -248.5t-117.5 -185.5t-178 -116.5t-223.5 -40.5h-328zM305 190h92q80 0 148.5 29t119 79t79 119.5t28.5 151.5q0 84 -28.5 154t-79 119t-119 76.5t-148.5 27.5h-92v-756z" />
<glyph unicode="E" horiz-adv-x="829" d="M96 -20v1175h645v-209h-436v-260h273v-209h-273v-289h436v-208h-645z" />
<glyph unicode="F" horiz-adv-x="780" d="M96 -20v1175h645v-209h-436v-260h281v-209h-281v-497h-209z" />
<glyph unicode="G" horiz-adv-x="1085" d="M78 567q0 139 31.5 251t92 189.5t149.5 119.5t204 42q135 0 235.5 -53t176.5 -182l-201 -135q-33 66 -94.5 106.5t-116.5 40.5q-258 0 -258 -379q0 -84 18.5 -153.5t52 -121.5t81 -81t106.5 -29q78 0 139.5 50.5t73.5 148.5h-217v209h463v-94q0 -102 -35 -197.5 t-96.5 -169.5t-145.5 -118t-182 -44q-106 0 -194.5 45t-151 126t-97 190.5t-34.5 238.5z" />
<glyph unicode="H" horiz-adv-x="1007" d="M96 -20v1175h209v-469h395v469h209v-1175h-209v497h-395v-497h-209z" />
<glyph unicode="I" horiz-adv-x="407" d="M96 -20v1175h209v-1175h-209z" />
<glyph unicode="J" horiz-adv-x="659" d="M43 -8v201q35 -4 61.5 -7.5t40.5 -3.5q104 0 162 66.5t58 238.5v668h208v-743q0 -76 -25.5 -151t-72.5 -134t-111.5 -100t-142.5 -50h2q-2 -2 -20 -2h-23h-45q-43 1 -92 17z" />
<glyph unicode="K" horiz-adv-x="1013" d="M96 -20v1175h209v-565l371 565h252l-344 -512l364 -663h-239l-263 456l-141 -211v-245h-209z" />
<glyph unicode="L" horiz-adv-x="815" d="M96 -20v1175h209v-967h473v-208h-682z" />
<glyph unicode="M" horiz-adv-x="1175" d="M96 -20v1175h264l236 -649l229 649h252v-1175h-209v731l-272 -768l-291 774v-737h-209z" />
<glyph unicode="N" horiz-adv-x="1011" d="M90 -20v1175h242l379 -743v743h209v-1175h-226l-395 776v-776h-209z" />
<glyph unicode="O" horiz-adv-x="1107" d="M78 567q0 281 133 439v-2q135 158 336 157h8q104 0 191.5 -40t149.5 -116.5t98 -186t36 -251.5q0 -139 -34.5 -249.5t-96 -187.5t-147.5 -118t-189 -41h-8q-100 0 -187 40t-151.5 116t-101.5 187.5t-37 252.5zM287 567q0 -98 20.5 -170.5t57 -120t86 -71t104.5 -23.5 q115 0 191.5 94.5t76.5 290.5q0 199 -69.5 293t-198.5 94q-119 0 -193.5 -94t-74.5 -293z" />
<glyph unicode="P" horiz-adv-x="933" d="M96 -20v1175h439q80 0 145 -25.5t112.5 -72.5t73 -115t25.5 -151q0 -174 -103.5 -269.5t-271.5 -95.5h-211v-446h-209zM305 635h223q152 0 154 149q-2 162 -154 162h-223v-311z" />
<glyph unicode="Q" horiz-adv-x="1105" d="M72 567q0 137 34.5 248t97 187.5t148.5 117.5t189 41h8q102 0 189 -40t150.5 -115.5t99.5 -186t36 -252.5q0 -137 -33 -244.5t-94 -189.5l90 -121l-158 -125l-90 121q-86 -37 -190 -37q-98 0 -184 38t-152 114t-103.5 187.5t-37.5 256.5zM281 567q0 -98 20.5 -170.5 t57 -120t86 -71t104.5 -23.5q16 0 30.5 1t26.5 3l-143 197l158 133l145 -203q51 88 51 254q0 199 -69.5 293t-198.5 94q-123 0 -195.5 -94t-72.5 -293z" />
<glyph unicode="R" horiz-adv-x="976" d="M96 -20v1175h439q162 0 258 -95t98 -269q0 -125 -53.5 -209t-153.5 -129l223 -473h-225l-211 446h-166v-446h-209zM305 635h223q152 0 154 149q-2 162 -154 162h-223v-311z" />
<glyph unicode="S" horiz-adv-x="892" d="M76 70l71 213q61 -45 133 -73t150 -28q176 0 176 146q0 53 -52 89t-132 81q-49 27 -109.5 54.5t-111.5 66t-86 95t-35 142.5q0 141 101.5 224t269.5 83q92 0 173 -20.5t146 -69.5l-59 -215q-59 47 -119 68.5t-143 21.5q-66 0 -113 -18.5t-47 -65.5t59.5 -89t136.5 -83 q68 -37 128.5 -77t105.5 -84t70.5 -95t25.5 -110q0 -190 -103.5 -272.5t-277.5 -82.5q-98 0 -184 23t-174 76z" />
<glyph unicode="T" horiz-adv-x="935" d="M57 946v209h822v-209h-295v-966h-228v966h-299z" />
<glyph unicode="U" horiz-adv-x="995" d="M90 461v694h209v-735q0 -129 53.5 -182.5t151.5 -53.5q92 0 141 53.5t49 182.5v735h211v-692q0 -236 -104.5 -362t-296.5 -126q-199 0 -306.5 125t-107.5 361z" />
<glyph unicode="V" horiz-adv-x="1026" d="M29 1155h225l258 -905l250 905h227l-346 -1175h-268z" />
<glyph unicode="W" horiz-adv-x="1531" d="M45 1155h223l195 -883l188 883h217l195 -883l188 883h228l-283 -1175h-268l-166 688l-166 -688h-268z" />
<glyph unicode="X" horiz-adv-x="1077" d="M68 1155h241l230 -387l229 387h242l-351 -592l349 -583h-246l-223 376l-224 -376h-245l346 583z" />
<glyph unicode="Y" horiz-adv-x="1007" d="M43 1155h236l227 -491l225 491h234l-344 -725v-450h-232v446z" />
<glyph unicode="Z" horiz-adv-x="937" d="M92 -20v208l502 758h-502v209h752v-213l-506 -754h508v-208h-754z" />
<glyph unicode="[" horiz-adv-x="503" d="M96 -299v1501h357v-166h-205v-1169h205v-166h-357z" />
<glyph unicode="\" horiz-adv-x="716" d="M31 1202h174l479 -1454h-170z" />
<glyph unicode="]" horiz-adv-x="507" d="M51 -133h201v1169h-201v166h357v-1501h-357v166z" />
<glyph unicode="^" horiz-adv-x="839" d="M49 690q0 25 17 47l-3 -2l355 580l356 -580q16 -23 17 -45q0 -45 -48 -45q-16 0 -18 2l-154 39v-428h-305v428l-153 -39q-2 -2 -17 -2q-47 0 -47 45z" />
<glyph unicode="_" horiz-adv-x="1138" d="M96 -6h944v-264h-944v264z" />
<glyph unicode="`" horiz-adv-x="360" d="M2 1432h174l125 -224h-104z" />
<glyph unicode="a" horiz-adv-x="841" d="M61 297q0 160 90.5 242t237.5 82q41 0 78 -7.5t70 -29.5q-10 68 -46 88t-98 20q-43 0 -78.5 -18.5t-68.5 -46.5l-96 164q49 53 117.5 82.5t148.5 29.5q154 0 244 -91t90 -247v-585h-209v49q-31 -23 -78 -40.5t-105 -17.5q-61 0 -115.5 22.5t-94 64.5t-63.5 102.5 t-24 136.5zM272 301q0 -53 40 -85t96 -32q16 0 38.5 4.5t43 13.5t35 22.5t14.5 29.5v111q0 12 -11.5 23t-29 19.5t-37 13.5t-35.5 5q-154 0 -154 -125z" />
<glyph unicode="b" horiz-adv-x="864" d="M96 -20v1118l209 92v-340q35 25 81 40t97 15q160 0 248 -128t88 -351q0 -96 -24.5 -180t-69.5 -145.5t-109.5 -97.5t-144.5 -36q-49 0 -90 14.5t-76 51.5v-53h-209zM305 307q4 -18 16.5 -40.5t32 -42t43 -33t52.5 -13.5q41 0 72.5 19.5t53 53.5t32.5 79t11 96 q0 129 -38.5 198.5t-137.5 69.5q-53 0 -86.5 -41t-50.5 -102v-244z" />
<glyph unicode="c" horiz-adv-x="774" d="M51 444q0 100 27.5 186.5t79 148t121 96t153.5 34.5q86 0 152.5 -36.5t115.5 -96.5l-159 -137q-23 29 -45.5 43t-63.5 14q-78 0 -123 -68.5t-45 -185.5q0 -129 41 -196.5t127 -67.5q68 0 123 60l170 -121q-127 -154 -293 -154q-90 0 -160.5 34t-120 97.5t-75 152 t-25.5 197.5z" />
<glyph unicode="d" horiz-adv-x="878" d="M47 418q0 100 26.5 189t73 153.5t109.5 102.5t139 38q53 0 97.5 -10t78.5 -39v246l209 92v-1208h-209v59q-33 -29 -73.5 -50.5t-94.5 -21.5q-78 0 -143 35t-112.5 94.5t-74 141.5t-26.5 178zM256 414q0 -104 43 -167t125 -63q49 0 93 30t54 91v240q-10 43 -49 84t-94 41 q-94 0 -133 -63.5t-39 -192.5z" />
<glyph unicode="e" d="M59 430q0 229 101.5 359.5t281.5 130.5q166 0 264.5 -117t98.5 -352v-56q0 -12 -1 -35.5t-1 -37.5h-531q8 -66 61.5 -103t110.5 -37q41 0 74 14.5t62 51.5l141 -133q-59 -78 -128 -112t-155 -34q-193 2 -286 120t-93 341zM272 530h320q-10 78 -50 130.5t-102 52.5 q-68 0 -113 -52.5t-55 -130.5z" />
<glyph unicode="f" horiz-adv-x="559" d="M57 686v209h93q4 147 66.5 229t186.5 82q23 0 48.5 -2t54.5 -6v-197q-33 4 -59.5 8.5t-32.5 4.5q-41 0 -58.5 -26.5t-19.5 -92.5h172v-209h-164v-706h-194v706h-93z" />
<glyph unicode="g" horiz-adv-x="858" d="M51 451q0 94 26.5 176t74 143t112 96t139.5 35q47 0 85 -10t73 -37v41h209v-762q0 -102 -23.5 -192.5t-70.5 -162t-117 -119.5t-162 -65l-24 224q156 37 180 192q-27 -18 -62.5 -28.5t-95.5 -10.5q-88 0 -152.5 38t-107.5 102.5t-63.5 152t-20.5 187.5zM266 449 q0 -129 37 -198t111 -69q70 0 108.5 33t38.5 96v238q0 39 -12 67.5t-30.5 46t-39 25.5t-37.5 8q-92 0 -134 -64t-42 -183z" />
<glyph unicode="h" horiz-adv-x="841" d="M94 -20v1093l209 133v-385q70 82 191 82q61 0 113 -24.5t90 -69.5t60.5 -107.5t22.5 -138.5v-583h-209v565q0 61 -42 105t-93 44q-49 0 -91 -42t-42 -107v-565h-209z" />
<glyph unicode="i" horiz-adv-x="403" d="M86 1077q0 59 30.5 97t84.5 38q47 0 80.5 -37.5t33.5 -97.5q0 -57 -34.5 -95t-79.5 -38q-53 0 -84 38t-31 95zM96 -20v915h209v-915h-209z" />
<glyph unicode="j" horiz-adv-x="397" d="M-47 -213q86 27 115.5 108.5t29.5 182.5v817h207v-913q0 -49 -15.5 -107.5t-48 -115t-87 -101.5t-129.5 -66zM88 1077q0 59 35 97t80 38q53 0 83.5 -37.5t30.5 -97.5q0 -57 -31.5 -95t-82.5 -38q-45 0 -80 38t-35 95z" />
<glyph unicode="k" horiz-adv-x="829" d="M96 -20v1101l209 125v-598l205 248h268l-258 -319l281 -557h-234l-194 391l-68 -82v-309h-209z" />
<glyph unicode="l" horiz-adv-x="403" d="M92 -20v1093l209 133v-1226h-209z" />
<glyph unicode="m" horiz-adv-x="1353" d="M96 -20v911h209v-57q72 72 203 71q104 0 188 -80q35 37 94.5 58.5t147.5 21.5q150 0 236 -88t86 -242v-595h-209v565q0 152 -129 151q-141 0 -142 -153v-563h-209v561q0 86 -36.5 118.5t-90.5 32.5q-59 0 -99 -35.5t-40 -111.5v-565h-209z" />
<glyph unicode="n" horiz-adv-x="874" d="M96 -20v915h209v-66q35 37 86 55.5t113 18.5q129 0 203.5 -87t74.5 -241v-595h-209v563q0 76 -33.5 114.5t-93.5 38.5q-59 0 -100 -39t-41 -114v-563h-209z" />
<glyph unicode="o" d="M66 436q0 100 26.5 186.5t75.5 150t116.5 99t151.5 35.5t152.5 -35.5t118 -98t76 -149.5t26.5 -188q0 -217 -96.5 -342t-276.5 -125t-275 122t-95 345zM274 434q0 -252 164 -252q162 0 162 252q0 260 -164 260q-78 0 -120 -71.5t-42 -188.5z" />
<glyph unicode="p" horiz-adv-x="864" d="M96 -406v1301h209v-57q70 70 168 69q88 0 152.5 -32.5t107.5 -92t63.5 -140.5t20.5 -177q0 -106 -21.5 -197.5t-65.5 -158t-111.5 -104.5t-161.5 -38q-37 0 -77 11.5t-75 39.5v-286zM305 317q0 -23 12.5 -47t34 -43.5t47 -33t54.5 -13.5q45 0 76.5 21.5t51 58.5t27.5 87 t8 110q0 104 -35.5 171.5t-127.5 67.5h-4q-25 0 -49.5 -12t-46 -32.5t-35 -44t-13.5 -48.5v-242z" />
<glyph unicode="q" horiz-adv-x="868" d="M51 465q0 96 20.5 177t63.5 140.5t107.5 92t152.5 32.5q98 0 168 -69v57h209v-1163l-209 -133v419q-35 -29 -76 -40t-75 -11q-94 0 -162 38t-112 104.5t-65.5 158t-21.5 197.5zM252 457q0 -59 8 -109.5t27.5 -87.5t50.5 -58.5t78 -21.5q27 0 53.5 13.5t48 33t33.5 44 t12 46.5v242q0 25 -13 48.5t-34.5 44t-46.5 32.5t-49 12h-4q-92 0 -128 -67.5t-36 -171.5z" />
<glyph unicode="r" horiz-adv-x="591" d="M96 -20v915h209v-47q49 53 137 53q53 0 107 -35l-70 -204q-55 31 -71 30q-55 0 -79 -44t-24 -109v-559h-209z" />
<glyph unicode="s" horiz-adv-x="751" d="M51 53l78 199q53 -43 114.5 -57.5t114.5 -14.5t90 18.5t37 61.5q0 31 -25.5 55.5t-88.5 34.5q-61 10 -117.5 26.5t-99.5 48.5t-69 81t-26 127q0 72 26 123t71 84.5t107.5 49t135.5 15.5q145 0 254 -80l-65 -221q-53 53 -101.5 70.5t-103.5 17.5q-41 0 -74 -8t-37 -43v-6 q0 -35 48.5 -54.5t128.5 -35.5q113 -25 179 -86.5t66 -188.5q0 -82 -27.5 -139t-76.5 -93t-114.5 -52.5t-141.5 -16.5q-63 0 -135 20.5t-148 63.5z" />
<glyph unicode="t" horiz-adv-x="602" d="M57 686v209h93v149l208 117v-266h158v-209h-158v-354q0 -96 17.5 -125t62.5 -29q10 0 26.5 5t37.5 12l-2 -2q4 4 23.5 11t23.5 9l-35 -229q-45 -10 -72.5 -13.5t-62.5 -3.5q-111 0 -169 78t-58 225v416h-93z" />
<glyph unicode="u" horiz-adv-x="878" d="M92 297v598h209v-541q0 -78 32 -125t93 -47q59 0 102 47t43 125v541h209v-915h-209v63q-39 -39 -91 -56.5t-109 -17.5q-129 0 -204 87t-75 241z" />
<glyph unicode="v" horiz-adv-x="823" d="M41 895h223l152 -590l147 590h223l-260 -915h-223z" />
<glyph unicode="w" horiz-adv-x="1327" d="M70 895h223l133 -567l129 567h217l133 -567l129 567h223l-241 -915h-223l-129 485l-127 -485h-224z" />
<glyph unicode="x" horiz-adv-x="817" d="M31 895h243l138 -248l137 248h244l-265 -459l263 -456h-242l-137 245l-138 -245h-241l262 456z" />
<glyph unicode="y" horiz-adv-x="845" d="M57 895h224l151 -590l148 590h223l-369 -1284h-221l111 385z" />
<glyph unicode="z" horiz-adv-x="796" d="M94 -20v176l355 530h-336v209h612v-174l-358 -533h364v-208h-637z" />
<glyph unicode="{" horiz-adv-x="782" d="M39 365v172q137 6 195.5 64t58.5 194v116q0 291 258 291h162v-153h-27q-63 0 -103 -8.5t-63.5 -38t-32 -87t-8.5 -155.5q0 -100 -40 -168t-144 -127v-31q184 -109 184 -291q0 -98 7.5 -155.5t30 -87t62 -37.5t105.5 -8h29v-154h-162q-258 0 -258 291v114q0 139 -58.5 197 t-195.5 62z" />
<glyph unicode="|" horiz-adv-x="305" d="M96 -299v1501h88v-1501h-88z" />
<glyph unicode="}" horiz-adv-x="784" d="M68 -145h30q63 0 104.5 8t64 37.5t30.5 87t8 155.5q0 176 191 291v31q-109 61 -150 127.5t-41 167.5q0 98 -8 155.5t-30.5 87t-63.5 38t-105 8.5h-30v153h170q254 0 254 -291v-116q0 -135 59 -193.5t194 -64.5v-172q-135 0 -194 -56.5t-59 -202.5v-114q0 -291 -254 -291 h-170v154z" />
<glyph unicode="~" horiz-adv-x="954" d="M45 403q27 31 66 58.5t82 49t88 34t86 12.5q37 0 69.5 -11t62 -23.5t57.5 -24t56 -11.5q72 0 136 76q33 -25 82 -60.5t85 -60.5q-59 -72 -146 -109.5t-173 -37.5q-43 0 -83 8t-71 27q-43 25 -82 24q-37 0 -77.5 -23.5t-81.5 -58.5q-41 41 -79 71.5t-77 59.5z" />
<glyph unicode="&#xa1;" horiz-adv-x="382" d="M80 1024q0 57 29.5 96t80.5 39q47 0 81 -39t34 -96t-33.5 -96t-81.5 -39q-51 0 -80.5 39t-29.5 96zM102 -16v503l17 326h143l17 -326v-503h-177z" />
<glyph unicode="&#xa2;" horiz-adv-x="839" d="M49 831q0 43 51 43l166 -38v428h305v-428l156 38h16q47 0 48 -43q0 -23 -17 -45l-356 -579l-355 579q-10 10 -12 20.5t-2 24.5z" />
<glyph unicode="&#xa3;" horiz-adv-x="937" d="M82 -20v208h41q25 0 43 22.5t30.5 58.5t19.5 79t9 86v72h-71v209h71v65q2 63 19.5 131t55.5 123.5t101.5 90t155.5 34.5h10q88 -2 153.5 -38t102.5 -117l-153 -127q-45 76 -105 75h-6q-72 0 -98.5 -37.5t-28.5 -111.5v-88h215v-209h-215v-135q0 -35 -14.5 -89.5 t-42.5 -93.5h473v-208h-766z" />
<glyph unicode="&#xa4;" horiz-adv-x="1028" d="M14 358v170h62v86l-62 7v161h92q53 188 164 285q113 98 285 98q213 0 342 -143l-123 -207h-2q-45 63 -100 92q-53 29 -117 29q-74 0 -125 -37q-55 -35 -88 -117h416l-107 -168h-356v-86h319l-100 -170h-168q33 -86 90 -125q55 -37 125 -36q55 0 115 30q63 33 100 76 l174 -119q-145 -219 -395 -219q-160 0 -281 103q-117 104 -168 290h-92z" />
<glyph unicode="&#xa5;" horiz-adv-x="1007" d="M43 1155h236l227 -491l225 491h234l-338 -709h159v-165h-165v-23h165v-164h-165v-114h-232v114h-186v164h186v23h-186v165h176z" />
<glyph unicode="&#xa6;" horiz-adv-x="952" d="M51 432v369h350l-32 211q0 51 41 51q23 0 41 -19l464 -428l-464 -426q-18 -18 -41 -18q-41 0 -41 51l32 209h-350z" />
<glyph unicode="&#xa7;" horiz-adv-x="839" d="M49 690q0 25 17 47l-3 -2l355 580l356 -580q16 -23 17 -45q0 -45 -48 -45q-16 0 -18 2l-154 39v-428h-305v428l-153 -39q-2 -2 -17 -2q-47 0 -47 45z" />
<glyph unicode="&#xa8;" horiz-adv-x="729" d="M111 1331q0 51 30.5 83t81.5 32q47 0 81 -32t34 -83q0 -47 -34 -80.5t-81 -33.5q-51 0 -81.5 33.5t-30.5 80.5zM393 1331q0 51 34 83t79 32q51 0 81.5 -32t30.5 -83q0 -47 -30.5 -80.5t-81.5 -33.5q-45 0 -79 33.5t-34 80.5z" />
<glyph unicode="&#xa9;" horiz-adv-x="1341" d="M0 565q0 119 47 226.5t127 187.5t186.5 127t227.5 47q119 0 226.5 -47t187 -127t127 -187.5t47.5 -226.5q0 -121 -47.5 -227.5t-127 -186t-187 -127t-226.5 -47.5q-121 0 -227.5 47.5t-186.5 127t-127 186t-47 227.5zM88 563q0 -104 40 -195.5t107.5 -159t158.5 -107.5 t196 -40q104 0 195.5 40t160 107.5t108.5 159t40 195.5t-40 195.5t-108.5 160t-160 108.5t-195.5 40t-195.5 -40t-159 -108.5t-107.5 -160t-40 -195.5zM301 557q0 78 20.5 144.5t58.5 114.5t91 76t121 28q164 0 244 -140l-113 -73q-55 74 -131 73q-74 0 -116 -59t-42 -164 q0 -94 46 -158.5t114 -64.5q35 0 70.5 18.5t60.5 44.5l104 -71q-86 -131 -237 -131q-63 0 -116.5 27.5t-92.5 75.5t-60.5 114.5t-21.5 144.5z" />
<glyph unicode="&#xaa;" horiz-adv-x="768" d="M145 801q2 43 29 69.5t61.5 38t70.5 6t59 -23.5q0 39 -16.5 59.5t-40 25.5t-49.5 -2t-44 -22l-45 76q33 41 69.5 56.5t77.5 15.5q82 0 130.5 -48t48.5 -134v-300h-150l2 13q-29 -12 -55 -13q-70 0 -109 42.5t-39 140.5zM279 780q0 -12 10 -19t24 -7q10 0 22.5 1t12.5 5 v51q0 2 -8 3t-16 1q-45 0 -45 -35z" />
<glyph unicode="&#xab;" horiz-adv-x="806" d="M90 547v137l344 178v-151l-203 -95l203 -94v-147zM397 547v137l344 178v-151l-202 -95l202 -94v-147z" />
<glyph unicode="&#xac;" horiz-adv-x="907" d="M90 1268l578 -101h-2q18 -2 35.5 -13t17.5 -40q0 -31 -27 -45l2 2l-139 -113l252 -303l-217 -264l-248 303l-90 -164q-10 -16 -15.5 -22t-19.5 -6q-23 0 -34 17.5t-15 41.5z" />
<glyph unicode="&#xad;" horiz-adv-x="532" d="M96 508v209h336v-209h-336z" />
<glyph unicode="&#xae;" horiz-adv-x="1146" d="M96 723q0 92 36 175t99.5 144.5t151.5 98.5t192 37q106 0 195.5 -35t154 -96.5t101.5 -144.5t37 -179q0 -90 -37 -171t-102.5 -144.5t-154.5 -100.5t-194 -37q-104 0 -192 37t-151.5 100.5t-99.5 144.5t-36 171zM223 723q0 -61 24.5 -120.5t69.5 -106.5t110 -76t146 -29 q76 0 144.5 25.5t120 70.5t81 105.5t29.5 130.5q0 61 -27.5 119.5t-77.5 105.5t-119 76t-151 29t-146.5 -29t-109.5 -76t-69.5 -105.5t-24.5 -119.5zM412 461v510h188q76 0 120 -44t46 -126q0 -41 -17.5 -82t-56.5 -60l90 -198h-141l-80 172h-16v-172h-133zM545 770h57 q29 0 29 31q0 35 -29 35h-57v-66z" />
<glyph unicode="&#xaf;" horiz-adv-x="645" d="M96 1253v160h451v-160h-451z" />
<glyph unicode="&#x2c9;" horiz-adv-x="645" d="M96 1253v160h451v-160h-451z" />
<glyph unicode="&#xb0;" horiz-adv-x="698" d="M76 909q0 55 19.5 104.5t55 86.5t86 57.5t109.5 20.5t109.5 -20.5t87.5 -56.5t57.5 -85t20.5 -107q0 -53 -21.5 -101t-58.5 -85t-87.5 -58.5t-107.5 -21.5q-59 0 -109.5 21.5t-86 58.5t-55 85t-19.5 101zM203 909q0 -53 36.5 -92t106.5 -39q66 0 109 39t43 92t-43 93 t-109 40q-70 0 -106.5 -40t-36.5 -93z" />
<glyph unicode="&#xb2;" horiz-adv-x="497" d="M61 1047q80 106 199 106q78 0 128 -43t50 -141v-2q0 -45 -12 -77t-32.5 -56.5t-47.5 -43t-55 -34.5q-45 -27 -62 -64h209v-151h-372v80q0 53 10 91t27.5 67.5t42 53t53.5 48.5q6 4 24.5 17t34.5 13l-8 -2q16 10 27.5 20.5t13.5 35.5q0 31 -35 30q-25 0 -45.5 -16 t-50.5 -68z" />
<glyph unicode="&#xb3;" horiz-adv-x="507" d="M72 664l125 92q31 -63 63 -64q37 0 41 43q-2 57 -45 58h-68v151h68q18 0 18 37q0 18 -18 23h-6q-12 0 -23 -48l-131 60q49 139 160 139q156 0 160 -170q0 -68 -33 -106q61 -51 66 -142q-4 -197 -189 -198q-125 0 -188 125z" />
<glyph unicode="&#xb4;" horiz-adv-x="358" d="M45 1214l125 224h174l-194 -224h-105z" />
<glyph unicode="&#xb5;" horiz-adv-x="892" d="M-39 -63q90 57 120 126.5t30 153.5q0 18 -1 37.5t-4 40.5v600h209v-541q0 -78 32 -125t93 -47q59 0 102.5 47t43.5 125v541h209v-651l2 -33q0 -29 9 -47.5t48 -32.5l-70 -192q-70 20 -109.5 55t-62.5 82q-76 -106 -221 -107h-6q-29 0 -54.5 8.5t-47.5 18.5 q-23 -72 -67 -122t-130 -103z" />
<glyph unicode="&#xb8;" horiz-adv-x="411" d="M57 -336l37 121q45 -14 80 -14q72 0 72 30v9q0 20 -39 22h-10q-16 0 -40 -7t-51 -18v252h115v-106q150 -2 150 -146v-6q0 -158 -174 -159h-19q-64 -1 -121 22z" />
<glyph unicode="&#xb9;" horiz-adv-x="378" d="M94 958v148q49 0 53 49h123v-608h-135v411h-41z" />
<glyph unicode="&#xba;" horiz-adv-x="690" d="M76.377 907.023q0 48.8594 20.6289 91.1221t58.7725 73.2871q38.1436 31.0254 90.6885 48.3701t117.934 17.3447q65.3896 0 118.713 -17.3447t91.8564 -47.8809q38.5322 -30.5371 59.1611 -73.0439t20.6289 -91.8545q0 -106.023 -75.1191 -167.097 q-75.1201 -61.0732 -215.24 -61.0732q-140.119 0 -214.071 59.6074q-73.9521 59.6084 -73.9521 168.562zM238.293 906.047q0 -123.124 127.665 -123.124q126.107 0 126.107 123.124q0 127.032 -127.665 127.032q-60.7178 0 -93.4121 -34.9336 q-32.6953 -34.9346 -32.6953 -92.0986z" />
<glyph unicode="&#xbb;" horiz-adv-x="831" d="M113 375v151l200 95l-200 94v147l344 -172v-137zM420 375v151l201 95l-201 94v147l344 -172v-137z" />
<glyph unicode="&#xbc;" horiz-adv-x="1171" d="M43 -20l903 1175h137l-905 -1175h-135zM113 954v152q59 0 63 49h139v-625h-153v424h-49zM633 121v141l227 342h150v-330h61v-153h-61v-144h-154v144h-223zM815 274h41v62z" />
<glyph unicode="&#xbd;" horiz-adv-x="1265" d="M43 -20l905 1175h137l-907 -1175h-135zM125 950v152q59 0 63 49h142v-625h-156v424h-49zM752 498q86 111 213 110q86 0 137 -43t51 -147v-2q0 -88 -47 -136.5t-109 -78.5v2q-27 -16 -44 -31.5t-25 -38.5h225v-153h-395v79q0 111 40 175.5t115 101.5l-4 -2q14 8 29.5 14 t29 14.5t22.5 20.5t9 31q0 33 -41 32q-23 0 -45 -16t-55 -70z" />
<glyph unicode="&#xbe;" horiz-adv-x="1167" d="M43 -20l903 1175h137l-905 -1175h-135zM78 649l131 92q31 -63 67 -63q43 0 46 45q-4 59 -50 59h-69v154h69q20 0 21 37q0 25 -21 26h-6q-14 0 -22 -49l-144 62q55 141 172 141q166 0 168 -174q0 -74 -32 -107q63 -55 67 -147q-4 -203 -199 -205q-135 0 -198 129zM649 121 v141l228 342h149v-330h61v-153h-61v-144h-154v144h-223zM831 274h41v62z" />
<glyph unicode="&#xbf;" horiz-adv-x="759" d="M57 307q0 55 6.5 97t20.5 75t36.5 60.5t57.5 58.5q12 12 33.5 32.5t43 53.5t38 80t20.5 115h201v-37q0 -66 -7 -115t-24.5 -91t-49.5 -82t-81 -85q-74 -74 -73 -150q0 -100 96 -100q51 0 116.5 34t112.5 83l98 -195q-111 -156 -323 -155q-143 0 -232.5 83.5t-89.5 237.5z M299 1065q0 57 34 96t81 39t80.5 -39t33.5 -96t-33.5 -96t-80.5 -39t-81 39t-34 96z" />
<glyph unicode="&#xc0;" horiz-adv-x="964" d="M22 -20l346 1175h268l347 -1175h-226l-59 206h-391l-58 -206h-227zM370 420h266l-137 463zM270 1432h174l125 -224h-104z" />
<glyph unicode="&#xc1;" horiz-adv-x="964" d="M22 -20l346 1175h268l347 -1175h-226l-59 206h-391l-58 -206h-227zM370 420h266l-137 463zM403 1214l125 224h174l-194 -224h-105z" />
<glyph unicode="&#xc2;" horiz-adv-x="964" d="M22 -20l346 1175h268l347 -1175h-226l-59 206h-391l-58 -206h-227zM370 420h266l-137 463zM246 1210l184 222h133l193 -222h-162l-96 115l-96 -115h-156z" />
<glyph unicode="&#xc3;" horiz-adv-x="964" d="M22 -20l346 1175h268l347 -1175h-226l-59 206h-391l-58 -206h-227zM370 420h266l-137 463zM226 1276q70 129 172 129h4q14 0 38.5 -9.5t52.5 -20.5t52.5 -21.5t40.5 -12.5h6q51 0 84 76l78 -88q-8 -33 -27.5 -54.5t-42 -34.5t-47 -18t-45.5 -5q-12 0 -37.5 9t-52 21.5 t-50.5 21.5t-34 9h-4q-41 0 -100 -78z" />
<glyph unicode="&#xc4;" horiz-adv-x="964" d="M22 -20l346 1175h268l347 -1175h-226l-59 206h-391l-58 -206h-227zM370 420h266l-137 463zM246 1331q0 51 30.5 83t81.5 32q47 0 81 -32t34 -83q0 -47 -34 -80.5t-81 -33.5q-51 0 -81.5 33.5t-30.5 80.5zM528 1331q0 51 34 83t79 32q51 0 81.5 -32t30.5 -83 q0 -47 -30.5 -80.5t-81.5 -33.5q-45 0 -79 33.5t-34 80.5z" />
<glyph unicode="&#xc5;" horiz-adv-x="964" d="M22 -20l346 1175h268l347 -1175h-226l-59 206h-391l-58 -206h-227zM370 420h266l-137 463zM355 1350q0 66 39.5 108.5t103.5 42.5q63 0 104 -45t41 -106q0 -63 -41 -103.5t-104 -40.5t-103 40.5t-40 103.5zM441 1354q0 -29 17 -46.5t42 -17.5q27 0 45 17.5t18 46.5 q0 27 -19 45t-44 18q-23 0 -41 -18t-18 -45z" />
<glyph unicode="&#xc6;" horiz-adv-x="1347" d="M59 -20l392 1175h804v-209h-364v-276h330v-209h-330v-273h364v-208h-606v479h-178l-156 -479h-256zM530 670h119v276h-26z" />
<glyph unicode="&#xc7;" horiz-adv-x="1028" d="M96 567q0 129 32.5 238.5t95 189.5t151.5 125t200 45q272 0 406 -231l-189 -119q-47 63 -99 92t-118 29q-123 0 -191.5 -97.5t-68.5 -271.5q0 -80 20.5 -147.5t55.5 -116.5t84 -77.5t106 -28.5q55 0 114.5 30.5t100.5 75.5l174 -119q-145 -219 -395 -219 q-104 0 -192.5 45t-152 126t-99 191.5t-35.5 239.5zM424 -336l37 121q45 -14 80 -14q72 0 72 30v9q0 20 -39 22h-10q-16 0 -40 -7t-51 -18v252h115v-106q150 -2 150 -146v-6q0 -158 -174 -159h-19q-64 -1 -121 22z" />
<glyph unicode="&#xc8;" horiz-adv-x="829" d="M116 -20v1175h645v-209h-436v-260h273v-209h-273v-289h436v-208h-645zM240 1432h174l125 -224h-104z" />
<glyph unicode="&#xc9;" horiz-adv-x="829" d="M116 -20v1175h645v-209h-436v-260h273v-209h-273v-289h436v-208h-645zM317 1214l125 224h174l-194 -224h-105z" />
<glyph unicode="&#xca;" horiz-adv-x="829" d="M116 -20v1175h645v-209h-436v-260h273v-209h-273v-289h436v-208h-645zM180 1210l184 222h133l193 -222h-162l-96 115l-96 -115h-156z" />
<glyph unicode="&#xcb;" horiz-adv-x="829" d="M116 -20v1175h645v-209h-436v-260h273v-209h-273v-289h436v-208h-645zM162 1331q0 51 30.5 83t81.5 32q47 0 81 -32t34 -83q0 -47 -34 -80.5t-81 -33.5q-51 0 -81.5 33.5t-30.5 80.5zM444 1331q0 51 34 83t79 32q51 0 81.5 -32t30.5 -83q0 -47 -30.5 -80.5t-81.5 -33.5 q-45 0 -79 33.5t-34 80.5z" />
<glyph unicode="&#xcc;" horiz-adv-x="407" d="M116 -20v1175h209v-1175h-209zM2 1432h174l125 -224h-104z" />
<glyph unicode="&#xcd;" horiz-adv-x="407" d="M116 -20v1175h209v-1175h-209zM143 1214l125 224h174l-194 -224h-105z" />
<glyph unicode="&#xce;" horiz-adv-x="407" d="M116 -20v1175h209v-1175h-209zM-27 1210l184 222h133l193 -222h-162l-96 115l-96 -115h-156z" />
<glyph unicode="&#xcf;" horiz-adv-x="407" d="M116 -20v1175h209v-1175h-209zM-22 1331q0 51 30.5 83t81.5 32q47 0 81 -32t34 -83q0 -47 -34 -80.5t-81 -33.5q-51 0 -81.5 33.5t-30.5 80.5zM260 1331q0 51 34 83t79 32q51 0 81.5 -32t30.5 -83q0 -47 -30.5 -80.5t-81.5 -33.5q-45 0 -79 33.5t-34 80.5z" />
<glyph unicode="&#xd0;" horiz-adv-x="1058" d="M63 469v209h336v-209h-336zM117 -20v1175h338q121 0 222 -44t174 -122t114 -185.5t41 -232.5q0 -139 -42 -248.5t-118 -185.5t-178.5 -116.5t-223.5 -40.5h-327zM326 190h92q80 0 148.5 29t118.5 79t79 119.5t29 151.5q0 84 -29 154t-79 119t-118.5 76.5t-148.5 27.5h-92 v-756z" />
<glyph unicode="&#xd1;" horiz-adv-x="1011" d="M110 -20v1175h242l379 -743v743h209v-1175h-226l-395 776v-776h-209zM230 1276q70 129 172 129h4q14 0 38.5 -9.5t52.5 -20.5t52.5 -21.5t40.5 -12.5h6q51 0 84 76l78 -88q-8 -33 -27.5 -54.5t-42 -34.5t-47 -18t-45.5 -5q-12 0 -37.5 9t-52 21.5t-50.5 21.5t-34 9h-4 q-41 0 -100 -78z" />
<glyph unicode="&#xd2;" horiz-adv-x="1107" d="M98 567q0 281 133 439v-2q135 158 336 157h8q104 0 191.5 -40t149.5 -116.5t98 -186t36 -251.5q0 -139 -34.5 -249.5t-96 -187.5t-147.5 -118t-189 -41h-8q-100 0 -187 40t-151.5 116t-101.5 187.5t-37 252.5zM307 567q0 -98 20.5 -170.5t57 -120t86 -71t104.5 -23.5 q115 0 191.5 94.5t76.5 290.5q0 199 -69.5 293t-198.5 94q-119 0 -193.5 -94t-74.5 -293zM330 1432h174l125 -224h-104z" />
<glyph unicode="&#xd3;" horiz-adv-x="1107" d="M98 567q0 281 133 439v-2q135 158 336 157h8q104 0 191.5 -40t149.5 -116.5t98 -186t36 -251.5q0 -139 -34.5 -249.5t-96 -187.5t-147.5 -118t-189 -41h-8q-100 0 -187 40t-151.5 116t-101.5 187.5t-37 252.5zM307 567q0 -98 20.5 -170.5t57 -120t86 -71t104.5 -23.5 q115 0 191.5 94.5t76.5 290.5q0 199 -69.5 293t-198.5 94q-119 0 -193.5 -94t-74.5 -293zM465 1214l125 224h174l-194 -224h-105z" />
<glyph unicode="&#xd4;" horiz-adv-x="1107" d="M98 567q0 281 133 439v-2q135 158 336 157h8q104 0 191.5 -40t149.5 -116.5t98 -186t36 -251.5q0 -139 -34.5 -249.5t-96 -187.5t-147.5 -118t-189 -41h-8q-100 0 -187 40t-151.5 116t-101.5 187.5t-37 252.5zM307 567q0 -98 20.5 -170.5t57 -120t86 -71t104.5 -23.5 q115 0 191.5 94.5t76.5 290.5q0 199 -69.5 293t-198.5 94q-119 0 -193.5 -94t-74.5 -293zM319 1210l184 222h133l193 -222h-162l-96 115l-96 -115h-156z" />
<glyph unicode="&#xd5;" horiz-adv-x="1107" d="M98 567q0 281 133 439v-2q135 158 336 157h8q104 0 191.5 -40t149.5 -116.5t98 -186t36 -251.5q0 -139 -34.5 -249.5t-96 -187.5t-147.5 -118t-189 -41h-8q-100 0 -187 40t-151.5 116t-101.5 187.5t-37 252.5zM307 567q0 -98 20.5 -170.5t57 -120t86 -71t104.5 -23.5 q115 0 191.5 94.5t76.5 290.5q0 199 -69.5 293t-198.5 94q-119 0 -193.5 -94t-74.5 -293zM299 1276q70 129 172 129h4q14 0 38.5 -9.5t52.5 -20.5t52.5 -21.5t40.5 -12.5h6q51 0 84 76l78 -88q-8 -33 -27.5 -54.5t-42 -34.5t-47 -18t-45.5 -5q-12 0 -37.5 9t-52 21.5 t-50.5 21.5t-34 9h-4q-41 0 -100 -78z" />
<glyph unicode="&#xd6;" horiz-adv-x="1107" d="M98 567q0 281 133 439v-2q135 158 336 157h8q104 0 191.5 -40t149.5 -116.5t98 -186t36 -251.5q0 -139 -34.5 -249.5t-96 -187.5t-147.5 -118t-189 -41h-8q-100 0 -187 40t-151.5 116t-101.5 187.5t-37 252.5zM307 567q0 -98 20.5 -170.5t57 -120t86 -71t104.5 -23.5 q115 0 191.5 94.5t76.5 290.5q0 199 -69.5 293t-198.5 94q-119 0 -193.5 -94t-74.5 -293zM320 1331q0 51 30.5 83t81.5 32q47 0 81 -32t34 -83q0 -47 -34 -80.5t-81 -33.5q-51 0 -81.5 33.5t-30.5 80.5zM602 1331q0 51 34 83t79 32q51 0 81.5 -32t30.5 -83 q0 -47 -30.5 -80.5t-81.5 -33.5q-45 0 -79 33.5t-34 80.5z" />
<glyph unicode="&#xd7;" horiz-adv-x="925" d="M82 150l274 358l-274 360l106 140l271 -363l276 361l109 -138l-279 -360l279 -358l-109 -138l-276 357l-271 -359z" />
<glyph unicode="&#xd8;" horiz-adv-x="1107" d="M78 567q0 281 133 439v-2q135 158 336 157h8q125 0 219 -57l29 49h186l-90 -154q131 -156 131 -432q0 -139 -34.5 -249.5t-96 -187.5t-147.5 -118t-189 -41h-8q-117 0 -225 60l-29 -51h-182l90 153q-63 78 -97 185.5t-34 248.5zM287 567q0 -145 39 -231l346 594 q-49 25 -117 24q-119 0 -193.5 -94t-74.5 -293zM436 211q53 -29 119 -29q115 0 191.5 94.5t76.5 290.5q0 129 -41 234z" />
<glyph unicode="&#xd9;" horiz-adv-x="995" d="M110 461v694h209v-735q0 -129 53.5 -182.5t151.5 -53.5q92 0 141 53.5t49 182.5v735h211v-692q0 -236 -104.5 -362t-296.5 -126q-199 0 -306.5 125t-107.5 361zM287 1432h174l125 -224h-104z" />
<glyph unicode="&#xda;" horiz-adv-x="995" d="M110 461v694h209v-735q0 -129 53.5 -182.5t151.5 -53.5q92 0 141 53.5t49 182.5v735h211v-692q0 -236 -104.5 -362t-296.5 -126q-199 0 -306.5 125t-107.5 361zM401 1214l125 224h174l-194 -224h-105z" />
<glyph unicode="&#xdb;" horiz-adv-x="995" d="M110 461v694h209v-735q0 -129 53.5 -182.5t151.5 -53.5q92 0 141 53.5t49 182.5v735h211v-692q0 -236 -104.5 -362t-296.5 -126q-199 0 -306.5 125t-107.5 361zM262 1210l184 222h133l193 -222h-162l-96 115l-96 -115h-156z" />
<glyph unicode="&#xdc;" horiz-adv-x="995" d="M110 461v694h209v-735q0 -129 53.5 -182.5t151.5 -53.5q92 0 141 53.5t49 182.5v735h211v-692q0 -236 -104.5 -362t-296.5 -126q-199 0 -306.5 125t-107.5 361zM271 1331q0 51 30.5 83t81.5 32q47 0 81 -32t34 -83q0 -47 -34 -80.5t-81 -33.5q-51 0 -81.5 33.5 t-30.5 80.5zM553 1331q0 51 34 83t79 32q51 0 81.5 -32t30.5 -83q0 -47 -30.5 -80.5t-81.5 -33.5q-45 0 -79 33.5t-34 80.5z" />
<glyph unicode="&#xdd;" horiz-adv-x="1007" d="M63 1155h236l227 -491l225 491h234l-344 -725v-450h-232v446zM381 1214l125 224h174l-194 -224h-105z" />
<glyph unicode="&#xde;" horiz-adv-x="882" d="M96 -20v1175h209v-180h105q94 0 174 -23.5t137 -72t89 -118t32 -161.5q0 -96 -36 -172t-96.5 -129t-140.5 -81t-166 -28h-98v-210h-209zM305 399h90q135 0 181.5 49.5t46.5 147.5q0 49 -20.5 81t-54.5 52.5t-76 28.5t-87 8h-80v-367z" />
<glyph unicode="&#xdf;" horiz-adv-x="944" d="M92 -20v786q0 199 89 298t255 99q72 0 136.5 -21.5t112.5 -62.5t77 -99t29 -132q0 -86 -36 -137.5t-87 -81.5q100 -29 151 -99.5t51 -171.5q0 -82 -23.5 -151.5t-69.5 -119.5t-113.5 -78.5t-153.5 -28.5h-117v208h109q70 0 115 41t45 123q0 76 -56.5 116t-161.5 40h-26 v194q96 0 130 32t34 114q0 53 -40 79.5t-110 26.5q-131 0 -131 -147v-827h-209z" />
<glyph unicode="&#xe0;" horiz-adv-x="841" d="M81 297q0 160 90.5 242t237.5 82q41 0 78 -7.5t70 -29.5q-10 68 -46 88t-98 20q-43 0 -78.5 -18.5t-68.5 -46.5l-96 164q49 53 117.5 82.5t148.5 29.5q154 0 244 -91t90 -247v-585h-209v49q-31 -23 -78 -40.5t-105 -17.5q-61 0 -115.5 22.5t-94 64.5t-63.5 102.5 t-24 136.5zM292 301q0 -53 40 -85t96 -32q16 0 38.5 4.5t43 13.5t35 22.5t14.5 29.5v111q0 12 -11.5 23t-29 19.5t-37 13.5t-35.5 5q-154 0 -154 -125zM227 1180h174l125 -224h-104z" />
<glyph unicode="&#xe1;" horiz-adv-x="841" d="M81 297q0 160 90.5 242t237.5 82q41 0 78 -7.5t70 -29.5q-10 68 -46 88t-98 20q-43 0 -78.5 -18.5t-68.5 -46.5l-96 164q49 53 117.5 82.5t148.5 29.5q154 0 244 -91t90 -247v-585h-209v49q-31 -23 -78 -40.5t-105 -17.5q-61 0 -115.5 22.5t-94 64.5t-63.5 102.5 t-24 136.5zM292 301q0 -53 40 -85t96 -32q16 0 38.5 4.5t43 13.5t35 22.5t14.5 29.5v111q0 12 -11.5 23t-29 19.5t-37 13.5t-35.5 5q-154 0 -154 -125zM352 962l125 224h174l-194 -224h-105z" />
<glyph unicode="&#xe2;" horiz-adv-x="841" d="M81 297q0 160 90.5 242t237.5 82q41 0 78 -7.5t70 -29.5q-10 68 -46 88t-98 20q-43 0 -78.5 -18.5t-68.5 -46.5l-96 164q49 53 117.5 82.5t148.5 29.5q154 0 244 -91t90 -247v-585h-209v49q-31 -23 -78 -40.5t-105 -17.5q-61 0 -115.5 22.5t-94 64.5t-63.5 102.5 t-24 136.5zM292 301q0 -53 40 -85t96 -32q16 0 38.5 4.5t43 13.5t35 22.5t14.5 29.5v111q0 12 -11.5 23t-29 19.5t-37 13.5t-35.5 5q-154 0 -154 -125zM190 958l184 222h133l193 -222h-162l-96 115l-96 -115h-156z" />
<glyph unicode="&#xe3;" horiz-adv-x="841" d="M81 297q0 160 90.5 242t237.5 82q41 0 78 -7.5t70 -29.5q-10 68 -46 88t-98 20q-43 0 -78.5 -18.5t-68.5 -46.5l-96 164q49 53 117.5 82.5t148.5 29.5q154 0 244 -91t90 -247v-585h-209v49q-31 -23 -78 -40.5t-105 -17.5q-61 0 -115.5 22.5t-94 64.5t-63.5 102.5 t-24 136.5zM292 301q0 -53 40 -85t96 -32q16 0 38.5 4.5t43 13.5t35 22.5t14.5 29.5v111q0 12 -11.5 23t-29 19.5t-37 13.5t-35.5 5q-154 0 -154 -125zM185 1024q70 129 172 129h4q14 0 38.5 -9.5t52.5 -20.5t52.5 -21.5t40.5 -12.5h6q51 0 84 76l78 -88q-8 -33 -27.5 -54.5 t-42 -34.5t-47 -18t-45.5 -5q-12 0 -37.5 9t-52 21.5t-50.5 21.5t-34 9h-4q-41 0 -100 -78z" />
<glyph unicode="&#xe4;" horiz-adv-x="841" d="M81 297q0 160 90.5 242t237.5 82q41 0 78 -7.5t70 -29.5q-10 68 -46 88t-98 20q-43 0 -78.5 -18.5t-68.5 -46.5l-96 164q49 53 117.5 82.5t148.5 29.5q154 0 244 -91t90 -247v-585h-209v49q-31 -23 -78 -40.5t-105 -17.5q-61 0 -115.5 22.5t-94 64.5t-63.5 102.5 t-24 136.5zM292 301q0 -53 40 -85t96 -32q16 0 38.5 4.5t43 13.5t35 22.5t14.5 29.5v111q0 12 -11.5 23t-29 19.5t-37 13.5t-35.5 5q-154 0 -154 -125zM195 1079q0 51 30.5 83t81.5 32q47 0 81 -32t34 -83q0 -47 -34 -80.5t-81 -33.5q-51 0 -81.5 33.5t-30.5 80.5zM477 1079 q0 51 34 83t79 32q51 0 81.5 -32t30.5 -83q0 -47 -30.5 -80.5t-81.5 -33.5q-45 0 -79 33.5t-34 80.5z" />
<glyph unicode="&#xe5;" horiz-adv-x="841" d="M81 297q0 160 90.5 242t237.5 82q41 0 78 -7.5t70 -29.5q-10 68 -46 88t-98 20q-43 0 -78.5 -18.5t-68.5 -46.5l-96 164q49 53 117.5 82.5t148.5 29.5q154 0 244 -91t90 -247v-585h-209v49q-31 -23 -78 -40.5t-105 -17.5q-61 0 -115.5 22.5t-94 64.5t-63.5 102.5 t-24 136.5zM292 301q0 -53 40 -85t96 -32q16 0 38.5 4.5t43 13.5t35 22.5t14.5 29.5v111q0 12 -11.5 23t-29 19.5t-37 13.5t-35.5 5q-154 0 -154 -125zM310 1098q0 66 39.5 108.5t103.5 42.5q63 0 104 -45t41 -106q0 -63 -41 -103.5t-104 -40.5t-103 40.5t-40 103.5z M396 1102q0 -29 17 -46.5t42 -17.5q27 0 45 17.5t18 46.5q0 27 -19 45t-44 18q-23 0 -41 -18t-18 -45z" />
<glyph unicode="&#xe6;" horiz-adv-x="1222" d="M80 297q0 160 69.5 242t217.5 82q39 0 61.5 -6.5t44.5 -22.5q-4 61 -24.5 80.5t-77.5 19.5q-29 0 -42.5 -8t-29.5 -25l-33 -32l-98 164q25 27 47.5 48t48 35.5t56 21.5t73.5 7q66 0 114 -19.5t85 -54.5q86 90 227 91q322 0 322 -449v-76q0 -12 -1 -35.5t-1 -37.5h-449 q4 -68 41 -104t90 -36q20 0 33.5 2t26 9.5t26 20.5t33.5 36l115 -137q-49 -72 -112.5 -106t-125.5 -38h-22q-61 0 -112.5 28t-90.5 71q-39 -55 -100.5 -76t-131.5 -21q-129 0 -204.5 86t-75.5 240zM291 301q0 -53 20.5 -85t73.5 -32q35 0 62.5 17.5t27.5 52.5v111 q0 27 -19.5 44t-52.5 17q-72 0 -92 -29.5t-20 -95.5zM690 530h238q-6 78 -30 130.5t-81 52.5q-66 0 -93.5 -52.5t-33.5 -130.5z" />
<glyph unicode="&#xe7;" horiz-adv-x="774" d="M71 444q0 100 27.5 186.5t79 148t121 96t153.5 34.5q86 0 152.5 -36.5t115.5 -96.5l-159 -137q-23 29 -45.5 43t-63.5 14q-78 0 -123 -68.5t-45 -185.5q0 -129 41 -196.5t127 -67.5q68 0 123 60l170 -121q-127 -154 -293 -154q-90 0 -160.5 34t-120 97.5t-75 152 t-25.5 197.5zM288 -336l37 121q45 -14 80 -14q72 0 72 30v9q0 20 -39 22h-10q-16 0 -40 -7t-51 -18v252h115v-106q150 -2 150 -146v-6q0 -158 -174 -159h-19q-64 -1 -121 22z" />
<glyph unicode="&#xe8;" d="M79 430q0 229 101.5 359.5t281.5 130.5q166 0 264.5 -117t98.5 -352v-56q0 -12 -1 -35.5t-1 -37.5h-531q8 -66 61.5 -103t110.5 -37q41 0 74 14.5t62 51.5l141 -133q-59 -78 -128 -112t-155 -34q-193 2 -286 120t-93 341zM292 530h320q-10 78 -50 130.5t-102 52.5 q-68 0 -113 -52.5t-55 -130.5zM227 1180h174l125 -224h-104z" />
<glyph unicode="&#xe9;" d="M79 430q0 229 101.5 359.5t281.5 130.5q166 0 264.5 -117t98.5 -352v-56q0 -12 -1 -35.5t-1 -37.5h-531q8 -66 61.5 -103t110.5 -37q41 0 74 14.5t62 51.5l141 -133q-59 -78 -128 -112t-155 -34q-193 2 -286 120t-93 341zM292 530h320q-10 78 -50 130.5t-102 52.5 q-68 0 -113 -52.5t-55 -130.5zM326 962l125 224h174l-194 -224h-105z" />
<glyph unicode="&#xea;" d="M79 430q0 229 101.5 359.5t281.5 130.5q166 0 264.5 -117t98.5 -352v-56q0 -12 -1 -35.5t-1 -37.5h-531q8 -66 61.5 -103t110.5 -37q41 0 74 14.5t62 51.5l141 -133q-59 -78 -128 -112t-155 -34q-193 2 -286 120t-93 341zM292 530h320q-10 78 -50 130.5t-102 52.5 q-68 0 -113 -52.5t-55 -130.5zM207 958l184 222h133l193 -222h-162l-96 115l-96 -115h-156z" />
<glyph unicode="&#xeb;" d="M79 430q0 229 101.5 359.5t281.5 130.5q166 0 264.5 -117t98.5 -352v-56q0 -12 -1 -35.5t-1 -37.5h-531q8 -66 61.5 -103t110.5 -37q41 0 74 14.5t62 51.5l141 -133q-59 -78 -128 -112t-155 -34q-193 2 -286 120t-93 341zM292 530h320q-10 78 -50 130.5t-102 52.5 q-68 0 -113 -52.5t-55 -130.5zM207 1079q0 51 30.5 83t81.5 32q47 0 81 -32t34 -83q0 -47 -34 -80.5t-81 -33.5q-51 0 -81.5 33.5t-30.5 80.5zM489 1079q0 51 34 83t79 32q51 0 81.5 -32t30.5 -83q0 -47 -30.5 -80.5t-81.5 -33.5q-45 0 -79 33.5t-34 80.5z" />
<glyph unicode="&#xec;" horiz-adv-x="407" d="M116 -20v915h209v-915h-209zM16 1180h174l125 -224h-104z" />
<glyph unicode="&#xed;" horiz-adv-x="407" d="M116 -20v915h209v-915h-209zM123 962l125 224h174l-194 -224h-105z" />
<glyph unicode="&#xee;" horiz-adv-x="407" d="M116 -20v915h209v-915h-209zM-23 958l184 222h133l193 -222h-162l-96 115l-96 -115h-156z" />
<glyph unicode="&#xef;" horiz-adv-x="407" d="M116 -20v915h209v-915h-209zM-32 1079q0 51 30.5 83t81.5 32q47 0 81 -32t34 -83q0 -47 -34 -80.5t-81 -33.5q-51 0 -81.5 33.5t-30.5 80.5zM250 1079q0 51 34 83t79 32q51 0 81.5 -32t30.5 -83q0 -47 -30.5 -80.5t-81.5 -33.5q-45 0 -79 33.5t-34 80.5z" />
<glyph unicode="&#xf0;" horiz-adv-x="854" d="M63 377q0 166 81 269.5t216 113.5l-139 121l66 75q-12 2 -24.5 3.5t-26.5 3.5l32 198q96 -6 164 -37l84 97l160 -140l-76 -88q82 -104 130 -247.5t48 -309.5q0 -217 -93 -342t-253 -125q-174 0 -271.5 101.5t-97.5 306.5zM256 365q0 -92 47 -139.5t119 -47.5 q150 0 149 189q0 92 -43 142t-114 50q-72 0 -115 -51t-43 -143zM395 760q39 -4 80 -21.5t76 -46.5q-14 47 -34.5 85t-45.5 69z" />
<glyph unicode="&#xf1;" horiz-adv-x="874" d="M116 -20v915h209v-66q35 37 86 55.5t113 18.5q129 0 203.5 -87t74.5 -241v-595h-209v563q0 76 -33.5 114.5t-93.5 38.5q-59 0 -100 -39t-41 -114v-563h-209zM178 1024q70 129 172 129h4q14 0 38.5 -9.5t52.5 -20.5t52.5 -21.5t40.5 -12.5h6q51 0 84 76l78 -88 q-8 -33 -27.5 -54.5t-42 -34.5t-47 -18t-45.5 -5q-12 0 -37.5 9t-52 21.5t-50.5 21.5t-34 9h-4q-41 0 -100 -78z" />
<glyph unicode="&#xf2;" d="M86 436q0 100 26.5 186.5t75.5 150t116.5 99t151.5 35.5t152.5 -35.5t118 -98t76 -149.5t26.5 -188q0 -217 -96.5 -342t-276.5 -125t-275 122t-95 345zM294 434q0 -252 164 -252q162 0 162 252q0 260 -164 260q-78 0 -120 -71.5t-42 -188.5zM244 1180h174l125 -224h-104z " />
<glyph unicode="&#xf3;" d="M86 436q0 100 26.5 186.5t75.5 150t116.5 99t151.5 35.5t152.5 -35.5t118 -98t76 -149.5t26.5 -188q0 -217 -96.5 -342t-276.5 -125t-275 122t-95 345zM294 434q0 -252 164 -252q162 0 162 252q0 260 -164 260q-78 0 -120 -71.5t-42 -188.5zM311 962l125 224h174 l-194 -224h-105z" />
<glyph unicode="&#xf4;" d="M86 436q0 100 26.5 186.5t75.5 150t116.5 99t151.5 35.5t152.5 -35.5t118 -98t76 -149.5t26.5 -188q0 -217 -96.5 -342t-276.5 -125t-275 122t-95 345zM294 434q0 -252 164 -252q162 0 162 252q0 260 -164 260q-78 0 -120 -71.5t-42 -188.5zM207 958l184 222h133 l193 -222h-162l-96 115l-96 -115h-156z" />
<glyph unicode="&#xf5;" d="M86 436q0 100 26.5 186.5t75.5 150t116.5 99t151.5 35.5t152.5 -35.5t118 -98t76 -149.5t26.5 -188q0 -217 -96.5 -342t-276.5 -125t-275 122t-95 345zM294 434q0 -252 164 -252q162 0 162 252q0 260 -164 260q-78 0 -120 -71.5t-42 -188.5zM174 1024q70 129 172 129h4 q14 0 38.5 -9.5t52.5 -20.5t52.5 -21.5t40.5 -12.5h6q51 0 84 76l78 -88q-8 -33 -27.5 -54.5t-42 -34.5t-47 -18t-45.5 -5q-12 0 -37.5 9t-52 21.5t-50.5 21.5t-34 9h-4q-41 0 -100 -78z" />
<glyph unicode="&#xf6;" d="M86 436q0 100 26.5 186.5t75.5 150t116.5 99t151.5 35.5t152.5 -35.5t118 -98t76 -149.5t26.5 -188q0 -217 -96.5 -342t-276.5 -125t-275 122t-95 345zM294 434q0 -252 164 -252q162 0 162 252q0 260 -164 260q-78 0 -120 -71.5t-42 -188.5zM203 1079q0 51 30.5 83 t81.5 32q47 0 81 -32t34 -83q0 -47 -34 -80.5t-81 -33.5q-51 0 -81.5 33.5t-30.5 80.5zM485 1079q0 51 34 83t79 32q51 0 81.5 -32t30.5 -83q0 -47 -30.5 -80.5t-81.5 -33.5q-45 0 -79 33.5t-34 80.5z" />
<glyph unicode="&#xf7;" horiz-adv-x="929" d="M41 410v196h844v-196h-844zM330 96q0 72 43 119t102 47q57 0 101.5 -47t44.5 -119t-43 -120t-103 -48q-63 0 -104 48t-41 120zM330 920q0 76 40 126t105 50q63 0 104.5 -50.5t41.5 -125.5q0 -72 -43 -124.5t-103 -52.5q-63 0 -104 52.5t-41 124.5z" />
<glyph unicode="&#xf8;" d="M66 -47l90 151q-90 121 -90 332q0 100 26.5 186.5t75.5 150t116.5 99t151.5 35.5q90 0 168 -47l17 29h165l-75 -125q98 -127 98 -328q0 -217 -96.5 -342t-276.5 -125q-96 0 -172 39l-33 -55h-165zM274 434q0 -35 2.5 -62.5t8.5 -49.5l213 358q-27 14 -62 14 q-78 0 -120 -71.5t-42 -188.5zM375 193q12 -6 28.5 -8.5t34.5 -2.5q162 0 162 252q0 35 -4 64.5t-8 56.5z" />
<glyph unicode="&#xf9;" horiz-adv-x="878" d="M112 297v598h209v-541q0 -78 32 -125t93 -47q59 0 102 47t43 125v541h209v-915h-209v63q-39 -39 -91 -56.5t-109 -17.5q-129 0 -204 87t-75 241zM240 1180h174l125 -224h-104z" />
<glyph unicode="&#xfa;" horiz-adv-x="878" d="M112 297v598h209v-541q0 -78 32 -125t93 -47q59 0 102 47t43 125v541h209v-915h-209v63q-39 -39 -91 -56.5t-109 -17.5q-129 0 -204 87t-75 241zM344 962l125 224h174l-194 -224h-105z" />
<glyph unicode="&#xfb;" horiz-adv-x="878" d="M112 297v598h209v-541q0 -78 32 -125t93 -47q59 0 102 47t43 125v541h209v-915h-209v63q-39 -39 -91 -56.5t-109 -17.5q-129 0 -204 87t-75 241zM186 958l184 222h133l193 -222h-162l-96 115l-96 -115h-156z" />
<glyph unicode="&#xfc;" horiz-adv-x="878" d="M112 297v598h209v-541q0 -78 32 -125t93 -47q59 0 102 47t43 125v541h209v-915h-209v63q-39 -39 -91 -56.5t-109 -17.5q-129 0 -204 87t-75 241zM207 1079q0 51 30.5 83t81.5 32q47 0 81 -32t34 -83q0 -47 -34 -80.5t-81 -33.5q-51 0 -81.5 33.5t-30.5 80.5zM489 1079 q0 51 34 83t79 32q51 0 81.5 -32t30.5 -83q0 -47 -30.5 -80.5t-81.5 -33.5q-45 0 -79 33.5t-34 80.5z" />
<glyph unicode="&#xfd;" horiz-adv-x="845" d="M77 895h224l151 -590l148 590h223l-369 -1284h-221l111 385zM332 962l125 224h174l-194 -224h-105z" />
<glyph unicode="&#xfe;" horiz-adv-x="854" d="M96 -313v1515h209v-442q86 111 182 110q72 0 132.5 -33.5t104.5 -91t68.5 -134t24.5 -162.5q0 -94 -23.5 -177.5t-64.5 -146t-98.5 -99t-126.5 -36.5q-117 0 -199 69v-372h-209zM305 422q0 -41 12.5 -81t35 -70.5t51 -49t63.5 -18.5q33 0 62.5 18.5t52 49t35 70.5 t12.5 81q0 43 -12.5 83t-35 70.5t-52 49t-62.5 18.5q-35 0 -63.5 -18.5t-51 -49t-35 -70.5t-12.5 -83z" />
<glyph unicode="&#xff;" horiz-adv-x="913" d="M49 893h248l172 -559l180 559h221l-413 -1282h-232l125 377zM193 1106q0 57 33.5 95t80.5 38q51 0 83 -38t32 -95t-32 -96t-83 -39q-47 0 -80.5 39t-33.5 96zM520 1106q0 57 33 95t76 38q51 0 82.5 -38t31.5 -95t-31.5 -96t-82.5 -39q-43 0 -76 39t-33 96z" />
<glyph unicode="&#x131;" horiz-adv-x="407" d="M96 -20v915h209v-915h-209z" />
<glyph unicode="&#x152;" horiz-adv-x="1339" d="M82 567q0 287 110.5 440.5t321.5 153.5h4q135 0 230 -63v57h501v-209h-293v-260h232v-209h-232v-289h293v-208h-501v53q-96 -61 -220 -62h-10q-205 0 -319.5 153.5t-116.5 442.5zM291 567q0 -199 58.5 -292t168.5 -93q113 0 170 93.5t57 291.5q0 199 -51 293t-176 94 q-117 0 -172 -94t-55 -293z" />
<glyph unicode="&#x153;" horiz-adv-x="1288" d="M86 436q0 100 20.5 186.5t61.5 150t102.5 99t145.5 35.5q139 0 223 -98q41 53 100.5 82t141.5 29q322 0 321 -449v-76q0 -12 -1 -35.5t-1 -37.5h-448q4 -68 40.5 -104t90.5 -36q37 0 50 13.5t42 52.5l143 -133q-29 -39 -54.5 -67t-53 -45t-59 -25.5t-74.5 -8.5 q-158 0 -238 90q-84 -90 -223 -90q-176 0 -253 124t-77 343zM295 434q0 -125 22.5 -188.5t100.5 -63.5t99.5 61.5t21.5 186.5v4q0 129 -22.5 194.5t-100.5 65.5q-74 0 -97.5 -71.5t-23.5 -188.5zM752 530h237q-6 78 -29.5 130.5t-80.5 52.5q-66 0 -93.5 -52.5t-33.5 -130.5z " />
<glyph unicode="&#x178;" horiz-adv-x="1007" d="M63 1155h236l227 -491l225 491h234l-344 -725v-450h-232v446zM267 1331q0 51 30.5 83t81.5 32q47 0 81 -32t34 -83q0 -47 -34 -80.5t-81 -33.5q-51 0 -81.5 33.5t-30.5 80.5zM549 1331q0 51 34 83t79 32q51 0 81.5 -32t30.5 -83q0 -47 -30.5 -80.5t-81.5 -33.5 q-45 0 -79 33.5t-34 80.5z" />
<glyph unicode="&#x2c6;" horiz-adv-x="593" d="M43 1210l184 222h133l193 -222h-162l-96 115l-96 -115h-156z" />
<glyph unicode="&#x2dc;" horiz-adv-x="681" d="M74 1276q70 129 172 129h4q14 0 38.5 -9.5t52.5 -20.5t52.5 -21.5t40.5 -12.5h6q51 0 84 76l78 -88q-8 -33 -27.5 -54.5t-42 -34.5t-47 -18t-45.5 -5q-12 0 -37.5 9t-52 21.5t-50.5 21.5t-34 9h-4q-41 0 -100 -78z" />
<glyph unicode="&#x2000;" horiz-adv-x="749" />
<glyph unicode="&#x2001;" horiz-adv-x="1501" />
<glyph unicode="&#x2002;" horiz-adv-x="749" />
<glyph unicode="&#x2003;" horiz-adv-x="1501" />
<glyph unicode="&#x2004;" horiz-adv-x="499" />
<glyph unicode="&#x2005;" horiz-adv-x="374" />
<glyph unicode="&#x2006;" horiz-adv-x="249" />
<glyph unicode="&#x2007;" horiz-adv-x="249" />
<glyph unicode="&#x2008;" horiz-adv-x="186" />
<glyph unicode="&#x2009;" horiz-adv-x="299" />
<glyph unicode="&#x200a;" horiz-adv-x="81" />
<glyph unicode="&#x2010;" horiz-adv-x="532" d="M96 508v209h336v-209h-336z" />
<glyph unicode="&#x2011;" horiz-adv-x="532" d="M96 508v209h336v-209h-336z" />
<glyph unicode="&#x2012;" horiz-adv-x="532" d="M96 508v209h336v-209h-336z" />
<glyph unicode="&#x2013;" horiz-adv-x="759" d="M96 508v209h582v-209h-582z" />
<glyph unicode="&#x2014;" horiz-adv-x="1261" d="M96 508v209h1094v-209h-1094z" />
<glyph unicode="&#x2018;" horiz-adv-x="366" d="M74 1006q0 254 186 274v-70q-35 -8 -53.5 -22t-24.5 -47h6q43 0 77 -42t34 -93q0 -57 -35 -96.5t-80 -39.5q-51 0 -80.5 39.5t-29.5 96.5z" />
<glyph unicode="&#x2019;" horiz-adv-x="368" d="M66 1067q0 59 32.5 97t85.5 38q45 0 78 -38t33 -97q0 -111 -47 -186.5t-142 -89.5v71q35 6 54.5 21.5t25.5 50.5h-2q-53 0 -85.5 37t-32.5 96z" />
<glyph unicode="&#x201a;" horiz-adv-x="329" d="M57 -160l80 533h160l-150 -533h-90z" />
<glyph unicode="&#x201c;" horiz-adv-x="679" d="M86 1006q0 111 48 186.5t142 89.5v-72q-35 -8 -53 -22t-26 -47h8q41 0 75.5 -39t34.5 -96t-33.5 -96.5t-78.5 -39.5q-53 0 -85 39.5t-32 96.5zM367 1006q0 111 49 186.5t141 89.5v-72q-35 -8 -54.5 -22t-27.5 -47h8q45 0 79 -42t34 -93q0 -57 -33 -96.5t-84 -39.5 q-45 0 -78.5 39.5t-33.5 96.5z" />
<glyph unicode="&#x201d;" horiz-adv-x="677" d="M82 1067q0 59 36 97t83 38q51 0 80.5 -38t29.5 -97q0 -111 -47 -186.5t-139 -89.5v71q33 6 52.5 21.5t25.5 50.5h-2q-47 0 -83 37t-36 96zM365 1067q0 59 33.5 97t78.5 38q53 0 84 -38t31 -97q0 -111 -48 -186.5t-143 -89.5l5 71q33 6 51 21.5t24 50.5h-4q-45 0 -78.5 37 t-33.5 96z" />
<glyph unicode="&#x201e;" horiz-adv-x="589" d="M332 115q0 57 30.5 96t81.5 39q43 0 78 -39t35 -96q0 -51 -11.5 -99.5t-35 -86.5t-60 -62.5t-88.5 -28.5v64q37 10 56.5 26.5t25.5 51.5h-4q-51 0 -79.5 39t-28.5 96zM88 115q0 57 30.5 96t81.5 39q43 0 78 -39t35 -96q0 -51 -11.5 -99.5t-35 -86.5t-60 -62.5 t-88.5 -28.5v64q37 10 56.5 26.5t25.5 51.5h-4q-51 0 -79.5 39t-28.5 96z" />
<glyph unicode="&#x2022;" horiz-adv-x="1126" d="M283 653q0 55 20.5 103.5t56 84.5t84 56.5t103.5 20.5t103 -20.5t84 -56.5t56.5 -84t20.5 -104q0 -55 -20.5 -103t-56.5 -84t-84 -56.5t-103 -20.5t-103.5 20.5t-84 56.5t-56 84t-20.5 103z" />
<glyph unicode="&#x2026;" horiz-adv-x="1159" d="M92 115q0 57 30 96t81 39q43 0 77.5 -39t34.5 -96t-34.5 -96t-77.5 -39q-51 0 -81 39t-30 96zM465 115q0 57 30.5 96t82.5 39q47 0 80.5 -39t33.5 -96t-33.5 -96t-80.5 -39q-51 0 -82 39t-31 96zM840 115q0 57 30.5 96t81.5 39q45 0 80 -39t35 -96t-35 -96t-80 -39 q-51 0 -81.5 39t-30.5 96z" />
<glyph unicode="&#x202f;" horiz-adv-x="299" />
<glyph unicode="&#x2039;" horiz-adv-x="512" d="M92 547v137l344 178v-151l-203 -95l203 -94v-147z" />
<glyph unicode="&#x203a;" horiz-adv-x="512" d="M92 375v151l201 95l-201 94v147l344 -172v-137z" />
<glyph unicode="&#x205f;" horiz-adv-x="374" />
<glyph unicode="&#x20ac;" horiz-adv-x="1028" d="M14 358v170h62v86l-62 7v161h92q53 188 164 285q113 98 285 98q213 0 342 -143l-123 -207h-2q-45 63 -100 92q-53 29 -117 29q-74 0 -125 -37q-55 -35 -88 -117h416l-107 -168h-356v-86h319l-100 -170h-168q33 -86 90 -125q55 -37 125 -36q55 0 115 30q63 33 100 76 l174 -119q-145 -219 -395 -219q-160 0 -281 103q-117 104 -168 290h-92z" />
<glyph unicode="&#x2122;" horiz-adv-x="1189" d="M88 971v151h449v-151h-142v-457h-162v457h-145zM547 516v608h170l96 -258l94 258h166v-608h-155v223l-103 -260l-115 279v-242h-153z" />
<glyph unicode="&#xe000;" horiz-adv-x="895" d="M0 895h895v-895h-895v895z" />
<glyph unicode="&#xfb01;" horiz-adv-x="962" d="M645 1077q0 59 30.5 97t84.5 38q47 0 80.5 -37.5t33.5 -97.5q0 -57 -34.5 -95t-79.5 -38q-53 0 -84 38t-31 95zM655 -20v915h209v-915h-209zM57 686v209h93q4 147 66.5 229t186.5 82q23 0 48.5 -2t54.5 -6v-197q-33 4 -59.5 8.5t-32.5 4.5q-41 0 -58.5 -26.5t-19.5 -92.5 h172v-209h-164v-706h-194v706h-93z" />
<glyph unicode="&#xfb02;" horiz-adv-x="962" d="M651 -20v1093l209 133v-1226h-209zM57 686v209h93q4 147 66.5 229t186.5 82q23 0 48.5 -2t54.5 -6v-197q-33 4 -59.5 8.5t-32.5 4.5q-41 0 -58.5 -26.5t-19.5 -92.5h172v-209h-164v-706h-194v706h-93z" />
<glyph unicode="&#xfb03;" horiz-adv-x="1521" d="M1204 1077q0 59 30.5 97t84.5 38q47 0 80.5 -37.5t33.5 -97.5q0 -57 -34.5 -95t-79.5 -38q-53 0 -84 38t-31 95zM1214 -20v915h209v-915h-209zM616 686v209h93q4 147 66.5 229t186.5 82q23 0 48.5 -2t54.5 -6v-197q-33 4 -59.5 8.5t-32.5 4.5q-41 0 -58.5 -26.5 t-19.5 -92.5h172v-209h-164v-706h-194v706h-93zM57 686v209h93q4 147 66.5 229t186.5 82q23 0 48.5 -2t54.5 -6v-197q-33 4 -59.5 8.5t-32.5 4.5q-41 0 -58.5 -26.5t-19.5 -92.5h172v-209h-164v-706h-194v706h-93z" />
<glyph unicode="&#xfb04;" horiz-adv-x="1521" d="M1210 -20v1093l209 133v-1226h-209zM616 686v209h93q4 147 66.5 229t186.5 82q23 0 48.5 -2t54.5 -6v-197q-33 4 -59.5 8.5t-32.5 4.5q-41 0 -58.5 -26.5t-19.5 -92.5h172v-209h-164v-706h-194v706h-93zM57 686v209h93q4 147 66.5 229t186.5 82q23 0 48.5 -2t54.5 -6 v-197q-33 4 -59.5 8.5t-32.5 4.5q-41 0 -58.5 -26.5t-19.5 -92.5h172v-209h-164v-706h-194v706h-93z" />
<glyph horiz-adv-x="509" d="M111 1350q0 66 39.5 108.5t103.5 42.5q63 0 104 -45t41 -106q0 -63 -41 -103.5t-104 -40.5t-103 40.5t-40 103.5zM197 1354q0 -29 17 -46.5t42 -17.5q27 0 45 17.5t18 46.5q0 27 -19 45t-44 18q-23 0 -41 -18t-18 -45z" />
</font>
</defs>
</svg>
